<svg width="723" height="547" viewBox="0 0 723 547" fill="none" xmlns="http://www.w3.org/2000/svg">
<rect width="723" height="547" fill="white"/>
<rect x="146" width="431" height="78" fill="#D9D9D9"/>
<rect x="146" y="117" width="431" height="79" fill="#E39E77"/>
<rect x="146" y="234" width="431" height="79" fill="#D9D9D9"/>
<rect x="146" y="351" width="431" height="79" fill="#D9D9D9"/>
<rect x="146" y="469" width="431" height="78" fill="#D9D9D9"/>
<path d="M280.861 373.091V408H276.634V373.091H280.861ZM292.814 392.25V408H288.791V381.818H292.678V385.909H293.018C293.632 384.58 294.564 383.511 295.814 382.705C297.064 381.886 298.678 381.477 300.655 381.477C302.428 381.477 303.979 381.841 305.308 382.568C306.638 383.284 307.672 384.375 308.411 385.841C309.149 387.295 309.518 389.136 309.518 391.364V408H305.496V391.636C305.496 389.58 304.962 387.977 303.893 386.83C302.825 385.67 301.359 385.091 299.496 385.091C298.212 385.091 297.064 385.369 296.053 385.926C295.053 386.483 294.263 387.295 293.683 388.364C293.104 389.432 292.814 390.727 292.814 392.25ZM328.256 381.818V385.227H314.688V381.818H328.256ZM318.642 375.545H322.665V400.5C322.665 401.636 322.83 402.489 323.159 403.057C323.5 403.614 323.932 403.989 324.455 404.182C324.989 404.364 325.551 404.455 326.142 404.455C326.585 404.455 326.949 404.432 327.233 404.386C327.517 404.33 327.744 404.284 327.915 404.25L328.733 407.864C328.46 407.966 328.08 408.068 327.591 408.17C327.102 408.284 326.483 408.341 325.733 408.341C324.597 408.341 323.483 408.097 322.392 407.608C321.313 407.119 320.415 406.375 319.699 405.375C318.994 404.375 318.642 403.114 318.642 401.591V375.545ZM345.003 408.545C342.48 408.545 340.304 407.989 338.474 406.875C336.656 405.75 335.253 404.182 334.264 402.17C333.287 400.148 332.798 397.795 332.798 395.114C332.798 392.432 333.287 390.068 334.264 388.023C335.253 385.966 336.628 384.364 338.389 383.216C340.162 382.057 342.23 381.477 344.594 381.477C345.957 381.477 347.304 381.705 348.634 382.159C349.963 382.614 351.173 383.352 352.264 384.375C353.355 385.386 354.224 386.727 354.872 388.398C355.52 390.068 355.844 392.125 355.844 394.568V396.273H335.662V392.795H351.753C351.753 391.318 351.457 390 350.866 388.841C350.287 387.682 349.457 386.767 348.378 386.097C347.31 385.426 346.048 385.091 344.594 385.091C342.991 385.091 341.605 385.489 340.435 386.284C339.276 387.068 338.384 388.091 337.759 389.352C337.134 390.614 336.821 391.966 336.821 393.409V395.727C336.821 397.705 337.162 399.381 337.844 400.756C338.537 402.119 339.497 403.159 340.724 403.875C341.952 404.58 343.378 404.932 345.003 404.932C346.06 404.932 347.014 404.784 347.866 404.489C348.73 404.182 349.474 403.727 350.099 403.125C350.724 402.511 351.207 401.75 351.548 400.841L355.435 401.932C355.026 403.25 354.338 404.409 353.372 405.409C352.406 406.398 351.213 407.17 349.793 407.727C348.372 408.273 346.776 408.545 345.003 408.545ZM361.963 408V381.818H365.849V385.773H366.122C366.599 384.477 367.463 383.426 368.713 382.619C369.963 381.812 371.372 381.409 372.94 381.409C373.236 381.409 373.605 381.415 374.048 381.426C374.491 381.437 374.827 381.455 375.054 381.477V385.568C374.918 385.534 374.605 385.483 374.116 385.415C373.639 385.335 373.134 385.295 372.599 385.295C371.327 385.295 370.19 385.562 369.19 386.097C368.202 386.619 367.418 387.347 366.838 388.278C366.27 389.199 365.986 390.25 365.986 391.432V408H361.963ZM383.845 392.25V408H379.822V381.818H383.709V385.909H384.05C384.663 384.58 385.595 383.511 386.845 382.705C388.095 381.886 389.709 381.477 391.686 381.477C393.459 381.477 395.01 381.841 396.339 382.568C397.669 383.284 398.703 384.375 399.442 385.841C400.18 387.295 400.55 389.136 400.55 391.364V408H396.527V391.636C396.527 389.58 395.993 387.977 394.925 386.83C393.857 385.67 392.391 385.091 390.527 385.091C389.243 385.091 388.095 385.369 387.084 385.926C386.084 386.483 385.294 387.295 384.714 388.364C384.135 389.432 383.845 390.727 383.845 392.25ZM418.878 408.545C416.355 408.545 414.179 407.989 412.349 406.875C410.531 405.75 409.128 404.182 408.139 402.17C407.162 400.148 406.673 397.795 406.673 395.114C406.673 392.432 407.162 390.068 408.139 388.023C409.128 385.966 410.503 384.364 412.264 383.216C414.037 382.057 416.105 381.477 418.469 381.477C419.832 381.477 421.179 381.705 422.509 382.159C423.838 382.614 425.048 383.352 426.139 384.375C427.23 385.386 428.099 386.727 428.747 388.398C429.395 390.068 429.719 392.125 429.719 394.568V396.273H409.537V392.795H425.628C425.628 391.318 425.332 390 424.741 388.841C424.162 387.682 423.332 386.767 422.253 386.097C421.185 385.426 419.923 385.091 418.469 385.091C416.866 385.091 415.48 385.489 414.31 386.284C413.151 387.068 412.259 388.091 411.634 389.352C411.009 390.614 410.696 391.966 410.696 393.409V395.727C410.696 397.705 411.037 399.381 411.719 400.756C412.412 402.119 413.372 403.159 414.599 403.875C415.827 404.58 417.253 404.932 418.878 404.932C419.935 404.932 420.889 404.784 421.741 404.489C422.605 404.182 423.349 403.727 423.974 403.125C424.599 402.511 425.082 401.75 425.423 400.841L429.31 401.932C428.901 403.25 428.213 404.409 427.247 405.409C426.281 406.398 425.088 407.17 423.668 407.727C422.247 408.273 420.651 408.545 418.878 408.545ZM447.224 381.818V385.227H433.656V381.818H447.224ZM437.611 375.545H441.634V400.5C441.634 401.636 441.798 402.489 442.128 403.057C442.469 403.614 442.901 403.989 443.423 404.182C443.957 404.364 444.52 404.455 445.111 404.455C445.554 404.455 445.918 404.432 446.202 404.386C446.486 404.33 446.713 404.284 446.884 404.25L447.702 407.864C447.429 407.966 447.048 408.068 446.56 408.17C446.071 408.284 445.452 408.341 444.702 408.341C443.565 408.341 442.452 408.097 441.361 407.608C440.281 407.119 439.384 406.375 438.668 405.375C437.963 404.375 437.611 403.114 437.611 401.591V375.545Z" fill="black"/>
<path d="M207.964 490.091V525H203.873L184.85 497.591H184.509V525H180.282V490.091H184.373L203.464 517.568H203.805V490.091H207.964ZM226.854 525.545C224.332 525.545 222.156 524.989 220.326 523.875C218.508 522.75 217.104 521.182 216.116 519.17C215.138 517.148 214.65 514.795 214.65 512.114C214.65 509.432 215.138 507.068 216.116 505.023C217.104 502.966 218.479 501.364 220.241 500.216C222.013 499.057 224.082 498.477 226.445 498.477C227.809 498.477 229.156 498.705 230.485 499.159C231.815 499.614 233.025 500.352 234.116 501.375C235.207 502.386 236.076 503.727 236.724 505.398C237.371 507.068 237.695 509.125 237.695 511.568V513.273H217.513V509.795H233.604C233.604 508.318 233.309 507 232.718 505.841C232.138 504.682 231.309 503.767 230.229 503.097C229.161 502.426 227.9 502.091 226.445 502.091C224.843 502.091 223.457 502.489 222.286 503.284C221.127 504.068 220.235 505.091 219.61 506.352C218.985 507.614 218.673 508.966 218.673 510.409V512.727C218.673 514.705 219.013 516.381 219.695 517.756C220.388 519.119 221.349 520.159 222.576 520.875C223.803 521.58 225.229 521.932 226.854 521.932C227.911 521.932 228.866 521.784 229.718 521.489C230.582 521.182 231.326 520.727 231.951 520.125C232.576 519.511 233.059 518.75 233.4 517.841L237.286 518.932C236.877 520.25 236.19 521.409 235.224 522.409C234.258 523.398 233.065 524.17 231.644 524.727C230.224 525.273 228.627 525.545 226.854 525.545ZM255.201 498.818V502.227H241.633V498.818H255.201ZM245.587 492.545H249.61V517.5C249.61 518.636 249.775 519.489 250.104 520.057C250.445 520.614 250.877 520.989 251.4 521.182C251.934 521.364 252.496 521.455 253.087 521.455C253.531 521.455 253.894 521.432 254.178 521.386C254.462 521.33 254.69 521.284 254.86 521.25L255.678 524.864C255.406 524.966 255.025 525.068 254.536 525.17C254.048 525.284 253.428 525.341 252.678 525.341C251.542 525.341 250.428 525.097 249.337 524.608C248.258 524.119 247.36 523.375 246.644 522.375C245.94 521.375 245.587 520.114 245.587 518.591V492.545ZM267.184 525L259.207 498.818H263.434L269.093 518.864H269.366L274.957 498.818H279.252L284.775 518.795H285.048L290.707 498.818H294.934L286.957 525H283.002L277.275 504.886H276.866L271.138 525H267.184ZM309.998 525.545C307.634 525.545 305.56 524.983 303.776 523.858C302.004 522.733 300.617 521.159 299.617 519.136C298.629 517.114 298.134 514.75 298.134 512.045C298.134 509.318 298.629 506.937 299.617 504.903C300.617 502.869 302.004 501.29 303.776 500.165C305.56 499.04 307.634 498.477 309.998 498.477C312.362 498.477 314.43 499.04 316.202 500.165C317.987 501.29 319.373 502.869 320.362 504.903C321.362 506.937 321.862 509.318 321.862 512.045C321.862 514.75 321.362 517.114 320.362 519.136C319.373 521.159 317.987 522.733 316.202 523.858C314.43 524.983 312.362 525.545 309.998 525.545ZM309.998 521.932C311.793 521.932 313.271 521.472 314.43 520.551C315.589 519.631 316.447 518.42 317.004 516.92C317.56 515.42 317.839 513.795 317.839 512.045C317.839 510.295 317.56 508.665 317.004 507.153C316.447 505.642 315.589 504.42 314.43 503.489C313.271 502.557 311.793 502.091 309.998 502.091C308.202 502.091 306.725 502.557 305.566 503.489C304.407 504.42 303.549 505.642 302.992 507.153C302.435 508.665 302.157 510.295 302.157 512.045C302.157 513.795 302.435 515.42 302.992 516.92C303.549 518.42 304.407 519.631 305.566 520.551C306.725 521.472 308.202 521.932 309.998 521.932ZM328.002 525V498.818H331.888V502.773H332.161C332.638 501.477 333.502 500.426 334.752 499.619C336.002 498.812 337.411 498.409 338.979 498.409C339.275 498.409 339.644 498.415 340.087 498.426C340.531 498.437 340.866 498.455 341.093 498.477V502.568C340.957 502.534 340.644 502.483 340.156 502.415C339.678 502.335 339.173 502.295 338.638 502.295C337.366 502.295 336.229 502.562 335.229 503.097C334.241 503.619 333.457 504.347 332.877 505.278C332.309 506.199 332.025 507.25 332.025 508.432V525H328.002ZM349.612 515.455L349.543 510.477H350.362L361.816 498.818H366.793L354.589 511.159H354.248L349.612 515.455ZM345.862 525V490.091H349.884V525H345.862ZM362.498 525L352.271 512.045L355.134 509.25L367.612 525H362.498ZM387.448 525H383.016L395.835 490.091H400.198L413.016 525H408.585L398.153 495.614H397.88L387.448 525ZM389.085 511.364H406.948V515.114H389.085V511.364ZM428.545 525.545C426.09 525.545 423.977 524.966 422.204 523.807C420.431 522.648 419.067 521.051 418.113 519.017C417.158 516.983 416.681 514.659 416.681 512.045C416.681 509.386 417.17 507.04 418.147 505.006C419.136 502.96 420.511 501.364 422.272 500.216C424.045 499.057 426.113 498.477 428.477 498.477C430.317 498.477 431.977 498.818 433.454 499.5C434.931 500.182 436.141 501.136 437.085 502.364C438.028 503.591 438.613 505.023 438.84 506.659H434.817C434.511 505.466 433.829 504.409 432.772 503.489C431.727 502.557 430.317 502.091 428.545 502.091C426.977 502.091 425.602 502.5 424.42 503.318C423.249 504.125 422.335 505.267 421.675 506.744C421.028 508.21 420.704 509.932 420.704 511.909C420.704 513.932 421.022 515.693 421.658 517.193C422.306 518.693 423.215 519.858 424.386 520.688C425.567 521.517 426.954 521.932 428.545 521.932C429.59 521.932 430.539 521.75 431.391 521.386C432.244 521.023 432.965 520.5 433.556 519.818C434.147 519.136 434.567 518.318 434.817 517.364H438.84C438.613 518.909 438.05 520.301 437.153 521.54C436.266 522.767 435.09 523.744 433.624 524.472C432.17 525.188 430.477 525.545 428.545 525.545ZM455.357 525.545C452.903 525.545 450.789 524.966 449.016 523.807C447.244 522.648 445.88 521.051 444.925 519.017C443.971 516.983 443.494 514.659 443.494 512.045C443.494 509.386 443.982 507.04 444.96 505.006C445.948 502.96 447.323 501.364 449.085 500.216C450.857 499.057 452.925 498.477 455.289 498.477C457.13 498.477 458.789 498.818 460.266 499.5C461.744 500.182 462.954 501.136 463.897 502.364C464.84 503.591 465.425 505.023 465.653 506.659H461.63C461.323 505.466 460.641 504.409 459.585 503.489C458.539 502.557 457.13 502.091 455.357 502.091C453.789 502.091 452.414 502.5 451.232 503.318C450.062 504.125 449.147 505.267 448.488 506.744C447.84 508.21 447.516 509.932 447.516 511.909C447.516 513.932 447.835 515.693 448.471 517.193C449.119 518.693 450.028 519.858 451.198 520.688C452.38 521.517 453.766 521.932 455.357 521.932C456.403 521.932 457.352 521.75 458.204 521.386C459.056 521.023 459.778 520.5 460.369 519.818C460.96 519.136 461.38 518.318 461.63 517.364H465.653C465.425 518.909 464.863 520.301 463.965 521.54C463.079 522.767 461.903 523.744 460.437 524.472C458.982 525.188 457.289 525.545 455.357 525.545ZM482.511 525.545C479.988 525.545 477.812 524.989 475.982 523.875C474.164 522.75 472.761 521.182 471.772 519.17C470.795 517.148 470.306 514.795 470.306 512.114C470.306 509.432 470.795 507.068 471.772 505.023C472.761 502.966 474.136 501.364 475.897 500.216C477.67 499.057 479.738 498.477 482.102 498.477C483.465 498.477 484.812 498.705 486.141 499.159C487.471 499.614 488.681 500.352 489.772 501.375C490.863 502.386 491.732 503.727 492.38 505.398C493.028 507.068 493.352 509.125 493.352 511.568V513.273H473.17V509.795H489.261C489.261 508.318 488.965 507 488.374 505.841C487.795 504.682 486.965 503.767 485.886 503.097C484.817 502.426 483.556 502.091 482.102 502.091C480.499 502.091 479.113 502.489 477.942 503.284C476.783 504.068 475.891 505.091 475.266 506.352C474.641 507.614 474.329 508.966 474.329 510.409V512.727C474.329 514.705 474.67 516.381 475.352 517.756C476.045 519.119 477.005 520.159 478.232 520.875C479.46 521.58 480.886 521.932 482.511 521.932C483.567 521.932 484.522 521.784 485.374 521.489C486.238 521.182 486.982 520.727 487.607 520.125C488.232 519.511 488.715 518.75 489.056 517.841L492.942 518.932C492.533 520.25 491.846 521.409 490.88 522.409C489.914 523.398 488.721 524.17 487.3 524.727C485.88 525.273 484.283 525.545 482.511 525.545ZM518.016 504.682L514.403 505.705C514.175 505.102 513.84 504.517 513.397 503.949C512.965 503.369 512.374 502.892 511.624 502.517C510.874 502.142 509.914 501.955 508.744 501.955C507.141 501.955 505.806 502.324 504.738 503.062C503.681 503.79 503.153 504.716 503.153 505.841C503.153 506.841 503.516 507.631 504.244 508.21C504.971 508.79 506.107 509.273 507.653 509.659L511.539 510.614C513.88 511.182 515.624 512.051 516.772 513.222C517.92 514.381 518.494 515.875 518.494 517.705C518.494 519.205 518.062 520.545 517.198 521.727C516.346 522.909 515.153 523.841 513.619 524.523C512.085 525.205 510.3 525.545 508.266 525.545C505.596 525.545 503.386 524.966 501.636 523.807C499.886 522.648 498.778 520.955 498.312 518.727L502.13 517.773C502.494 519.182 503.181 520.239 504.192 520.943C505.215 521.648 506.55 522 508.198 522C510.073 522 511.562 521.602 512.664 520.807C513.778 520 514.335 519.034 514.335 517.909C514.335 517 514.016 516.239 513.38 515.625C512.744 515 511.766 514.534 510.448 514.227L506.085 513.205C503.687 512.636 501.925 511.756 500.8 510.562C499.687 509.358 499.13 507.852 499.13 506.045C499.13 504.568 499.545 503.261 500.374 502.125C501.215 500.989 502.357 500.097 503.8 499.449C505.255 498.801 506.903 498.477 508.744 498.477C511.335 498.477 513.369 499.045 514.846 500.182C516.335 501.318 517.391 502.818 518.016 504.682ZM543.094 504.682L539.481 505.705C539.254 505.102 538.918 504.517 538.475 503.949C538.043 503.369 537.452 502.892 536.702 502.517C535.952 502.142 534.992 501.955 533.822 501.955C532.219 501.955 530.884 502.324 529.816 503.062C528.759 503.79 528.231 504.716 528.231 505.841C528.231 506.841 528.594 507.631 529.322 508.21C530.049 508.79 531.185 509.273 532.731 509.659L536.617 510.614C538.958 511.182 540.702 512.051 541.85 513.222C542.998 514.381 543.572 515.875 543.572 517.705C543.572 519.205 543.14 520.545 542.276 521.727C541.424 522.909 540.231 523.841 538.697 524.523C537.163 525.205 535.379 525.545 533.344 525.545C530.674 525.545 528.464 524.966 526.714 523.807C524.964 522.648 523.856 520.955 523.39 518.727L527.208 517.773C527.572 519.182 528.259 520.239 529.271 520.943C530.293 521.648 531.629 522 533.276 522C535.151 522 536.64 521.602 537.742 520.807C538.856 520 539.413 519.034 539.413 517.909C539.413 517 539.094 516.239 538.458 515.625C537.822 515 536.844 514.534 535.526 514.227L531.163 513.205C528.765 512.636 527.004 511.756 525.879 510.562C524.765 509.358 524.208 507.852 524.208 506.045C524.208 504.568 524.623 503.261 525.452 502.125C526.293 500.989 527.435 500.097 528.879 499.449C530.333 498.801 531.981 498.477 533.822 498.477C536.413 498.477 538.447 499.045 539.924 500.182C541.413 501.318 542.469 502.818 543.094 504.682Z" fill="black"/>
<path d="M258.446 174V139.091H270.241C272.969 139.091 275.207 139.557 276.957 140.489C278.707 141.409 280.003 142.676 280.844 144.29C281.685 145.903 282.105 147.739 282.105 149.795C282.105 151.852 281.685 153.676 280.844 155.267C280.003 156.858 278.713 158.108 276.974 159.017C275.236 159.915 273.014 160.364 270.31 160.364H260.764V156.545H270.173C272.037 156.545 273.537 156.273 274.673 155.727C275.821 155.182 276.651 154.409 277.162 153.409C277.685 152.398 277.946 151.193 277.946 149.795C277.946 148.398 277.685 147.176 277.162 146.131C276.639 145.085 275.804 144.278 274.656 143.71C273.509 143.131 271.991 142.841 270.105 142.841H262.673V174H258.446ZM274.878 158.318L283.469 174H278.56L270.105 158.318H274.878ZM299.3 174.545C296.777 174.545 294.601 173.989 292.771 172.875C290.953 171.75 289.55 170.182 288.561 168.17C287.584 166.148 287.095 163.795 287.095 161.114C287.095 158.432 287.584 156.068 288.561 154.023C289.55 151.966 290.925 150.364 292.686 149.216C294.459 148.057 296.527 147.477 298.891 147.477C300.254 147.477 301.601 147.705 302.93 148.159C304.26 148.614 305.47 149.352 306.561 150.375C307.652 151.386 308.521 152.727 309.169 154.398C309.817 156.068 310.141 158.125 310.141 160.568V162.273H289.959V158.795H306.05C306.05 157.318 305.754 156 305.163 154.841C304.584 153.682 303.754 152.767 302.675 152.097C301.607 151.426 300.345 151.091 298.891 151.091C297.288 151.091 295.902 151.489 294.732 152.284C293.572 153.068 292.68 154.091 292.055 155.352C291.43 156.614 291.118 157.966 291.118 159.409V161.727C291.118 163.705 291.459 165.381 292.141 166.756C292.834 168.119 293.794 169.159 295.021 169.875C296.249 170.58 297.675 170.932 299.3 170.932C300.357 170.932 301.311 170.784 302.163 170.489C303.027 170.182 303.771 169.727 304.396 169.125C305.021 168.511 305.504 167.75 305.845 166.841L309.732 167.932C309.322 169.25 308.635 170.409 307.669 171.409C306.703 172.398 305.51 173.17 304.089 173.727C302.669 174.273 301.072 174.545 299.3 174.545ZM327.646 147.818V151.227H314.078V147.818H327.646ZM318.033 141.545H322.055V166.5C322.055 167.636 322.22 168.489 322.55 169.057C322.891 169.614 323.322 169.989 323.845 170.182C324.379 170.364 324.942 170.455 325.533 170.455C325.976 170.455 326.339 170.432 326.624 170.386C326.908 170.33 327.135 170.284 327.305 170.25L328.124 173.864C327.851 173.966 327.47 174.068 326.982 174.17C326.493 174.284 325.874 174.341 325.124 174.341C323.987 174.341 322.874 174.097 321.783 173.608C320.703 173.119 319.805 172.375 319.089 171.375C318.385 170.375 318.033 169.114 318.033 167.591V141.545ZM344.393 174.545C341.871 174.545 339.695 173.989 337.865 172.875C336.047 171.75 334.643 170.182 333.655 168.17C332.678 166.148 332.189 163.795 332.189 161.114C332.189 158.432 332.678 156.068 333.655 154.023C334.643 151.966 336.018 150.364 337.78 149.216C339.553 148.057 341.621 147.477 343.984 147.477C345.348 147.477 346.695 147.705 348.024 148.159C349.354 148.614 350.564 149.352 351.655 150.375C352.746 151.386 353.615 152.727 354.263 154.398C354.911 156.068 355.234 158.125 355.234 160.568V162.273H335.053V158.795H351.143C351.143 157.318 350.848 156 350.257 154.841C349.678 153.682 348.848 152.767 347.768 152.097C346.7 151.426 345.439 151.091 343.984 151.091C342.382 151.091 340.996 151.489 339.825 152.284C338.666 153.068 337.774 154.091 337.149 155.352C336.524 156.614 336.212 157.966 336.212 159.409V161.727C336.212 163.705 336.553 165.381 337.234 166.756C337.928 168.119 338.888 169.159 340.115 169.875C341.342 170.58 342.768 170.932 344.393 170.932C345.45 170.932 346.405 170.784 347.257 170.489C348.121 170.182 348.865 169.727 349.49 169.125C350.115 168.511 350.598 167.75 350.939 166.841L354.825 167.932C354.416 169.25 353.729 170.409 352.763 171.409C351.797 172.398 350.604 173.17 349.183 173.727C347.763 174.273 346.166 174.545 344.393 174.545ZM373.49 142.841V139.091H399.672V142.841H388.695V174H384.467V142.841H373.49ZM434.197 156.545C434.197 160.227 433.533 163.409 432.203 166.091C430.874 168.773 429.05 170.841 426.732 172.295C424.413 173.75 421.766 174.477 418.788 174.477C415.811 174.477 413.163 173.75 410.845 172.295C408.527 170.841 406.703 168.773 405.374 166.091C404.044 163.409 403.379 160.227 403.379 156.545C403.379 152.864 404.044 149.682 405.374 147C406.703 144.318 408.527 142.25 410.845 140.795C413.163 139.341 415.811 138.614 418.788 138.614C421.766 138.614 424.413 139.341 426.732 140.795C429.05 142.25 430.874 144.318 432.203 147C433.533 149.682 434.197 152.864 434.197 156.545ZM430.107 156.545C430.107 153.523 429.601 150.972 428.589 148.892C427.589 146.812 426.232 145.239 424.516 144.17C422.811 143.102 420.902 142.568 418.788 142.568C416.675 142.568 414.76 143.102 413.044 144.17C411.339 145.239 409.982 146.812 408.97 148.892C407.97 150.972 407.47 153.523 407.47 156.545C407.47 159.568 407.97 162.119 408.97 164.199C409.982 166.278 411.339 167.852 413.044 168.92C414.76 169.989 416.675 170.523 418.788 170.523C420.902 170.523 422.811 169.989 424.516 168.92C426.232 167.852 427.589 166.278 428.589 164.199C429.601 162.119 430.107 159.568 430.107 156.545ZM441.305 174V139.091H453.101C455.828 139.091 458.067 139.557 459.817 140.489C461.567 141.409 462.862 142.676 463.703 144.29C464.544 145.903 464.964 147.739 464.964 149.795C464.964 151.852 464.544 153.676 463.703 155.267C462.862 156.858 461.572 158.108 459.834 159.017C458.095 159.915 455.874 160.364 453.169 160.364H443.624V156.545H453.033C454.896 156.545 456.396 156.273 457.533 155.727C458.68 155.182 459.51 154.409 460.021 153.409C460.544 152.398 460.805 151.193 460.805 149.795C460.805 148.398 460.544 147.176 460.021 146.131C459.499 145.085 458.663 144.278 457.516 143.71C456.368 143.131 454.851 142.841 452.964 142.841H445.533V174H441.305ZM457.737 158.318L466.328 174H461.419L452.964 158.318H457.737Z" fill="black"/>
<path d="M230.136 56H225.704L238.522 21.0909H242.886L255.704 56H251.272L240.84 26.6136H240.567L230.136 56ZM231.772 42.3636H249.636V46.1136H231.772V42.3636ZM260.596 65.8182V29.8182H264.482V33.9773H264.96C265.255 33.5227 265.664 32.9432 266.187 32.2386C266.721 31.5227 267.482 30.8864 268.471 30.3295C269.471 29.7614 270.823 29.4773 272.528 29.4773C274.732 29.4773 276.675 30.0284 278.357 31.1307C280.039 32.233 281.352 33.7955 282.295 35.8182C283.238 37.8409 283.71 40.2273 283.71 42.9773C283.71 45.75 283.238 48.1534 282.295 50.1875C281.352 52.2102 280.045 53.7784 278.374 54.892C276.704 55.9943 274.778 56.5455 272.596 56.5455C270.914 56.5455 269.567 56.267 268.556 55.7102C267.545 55.142 266.766 54.5 266.221 53.7841C265.675 53.0568 265.255 52.4545 264.96 51.9773H264.619V65.8182H260.596ZM264.55 42.9091C264.55 44.8864 264.84 46.6307 265.42 48.142C265.999 49.642 266.846 50.8182 267.96 51.6705C269.073 52.5114 270.437 52.9318 272.05 52.9318C273.732 52.9318 275.136 52.4886 276.261 51.6023C277.397 50.7045 278.249 49.5 278.817 47.9886C279.397 46.4659 279.687 44.7727 279.687 42.9091C279.687 41.0682 279.403 39.4091 278.835 37.9318C278.278 36.4432 277.431 35.267 276.295 34.4034C275.17 33.5284 273.755 33.0909 272.05 33.0909C270.414 33.0909 269.039 33.5057 267.925 34.3352C266.812 35.1534 265.971 36.3011 265.403 37.7784C264.835 39.2443 264.55 40.9545 264.55 42.9091ZM289.846 65.8182V29.8182H293.732V33.9773H294.21C294.505 33.5227 294.914 32.9432 295.437 32.2386C295.971 31.5227 296.732 30.8864 297.721 30.3295C298.721 29.7614 300.073 29.4773 301.778 29.4773C303.982 29.4773 305.925 30.0284 307.607 31.1307C309.289 32.233 310.602 33.7955 311.545 35.8182C312.488 37.8409 312.96 40.2273 312.96 42.9773C312.96 45.75 312.488 48.1534 311.545 50.1875C310.602 52.2102 309.295 53.7784 307.624 54.892C305.954 55.9943 304.028 56.5455 301.846 56.5455C300.164 56.5455 298.817 56.267 297.806 55.7102C296.795 55.142 296.016 54.5 295.471 53.7841C294.925 53.0568 294.505 52.4545 294.21 51.9773H293.869V65.8182H289.846ZM293.8 42.9091C293.8 44.8864 294.09 46.6307 294.67 48.142C295.249 49.642 296.096 50.8182 297.21 51.6705C298.323 52.5114 299.687 52.9318 301.3 52.9318C302.982 52.9318 304.386 52.4886 305.511 51.6023C306.647 50.7045 307.499 49.5 308.067 47.9886C308.647 46.4659 308.937 44.7727 308.937 42.9091C308.937 41.0682 308.653 39.4091 308.085 37.9318C307.528 36.4432 306.681 35.267 305.545 34.4034C304.42 33.5284 303.005 33.0909 301.3 33.0909C299.664 33.0909 298.289 33.5057 297.175 34.3352C296.062 35.1534 295.221 36.3011 294.653 37.7784C294.085 39.2443 293.8 40.9545 293.8 42.9091ZM323.119 21.0909V56H319.096V21.0909H323.119ZM330.487 56V29.8182H334.509V56H330.487ZM332.532 25.4545C331.748 25.4545 331.072 25.1875 330.504 24.6534C329.947 24.1193 329.668 23.4773 329.668 22.7273C329.668 21.9773 329.947 21.3352 330.504 20.8011C331.072 20.267 331.748 20 332.532 20C333.316 20 333.987 20.267 334.543 20.8011C335.112 21.3352 335.396 21.9773 335.396 22.7273C335.396 23.4773 335.112 24.1193 334.543 24.6534C333.987 25.1875 333.316 25.4545 332.532 25.4545ZM352.513 56.5455C350.059 56.5455 347.945 55.9659 346.173 54.8068C344.4 53.6477 343.036 52.0511 342.082 50.017C341.127 47.983 340.65 45.6591 340.65 43.0455C340.65 40.3864 341.138 38.0398 342.116 36.0057C343.104 33.9602 344.479 32.3636 346.241 31.2159C348.013 30.0568 350.082 29.4773 352.445 29.4773C354.286 29.4773 355.945 29.8182 357.423 30.5C358.9 31.1818 360.11 32.1364 361.053 33.3636C361.996 34.5909 362.582 36.0227 362.809 37.6591H358.786C358.479 36.4659 357.798 35.4091 356.741 34.4886C355.695 33.5568 354.286 33.0909 352.513 33.0909C350.945 33.0909 349.57 33.5 348.388 34.3182C347.218 35.125 346.303 36.267 345.644 37.7443C344.996 39.2102 344.673 40.9318 344.673 42.9091C344.673 44.9318 344.991 46.6932 345.627 48.1932C346.275 49.6932 347.184 50.858 348.354 51.6875C349.536 52.517 350.923 52.9318 352.513 52.9318C353.559 52.9318 354.508 52.75 355.36 52.3864C356.212 52.0227 356.934 51.5 357.525 50.8182C358.116 50.1364 358.536 49.3182 358.786 48.3636H362.809C362.582 49.9091 362.019 51.3011 361.121 52.5398C360.235 53.767 359.059 54.7443 357.593 55.4716C356.138 56.1875 354.445 56.5455 352.513 56.5455ZM376.394 56.6136C374.735 56.6136 373.229 56.3011 371.877 55.6761C370.525 55.0398 369.451 54.125 368.656 52.9318C367.86 51.7273 367.462 50.2727 367.462 48.5682C367.462 47.0682 367.758 45.8523 368.349 44.9205C368.94 43.9773 369.729 43.2386 370.718 42.7045C371.707 42.1705 372.798 41.7727 373.991 41.5114C375.195 41.2386 376.406 41.0227 377.621 40.8636C379.212 40.6591 380.502 40.5057 381.491 40.4034C382.491 40.2898 383.218 40.1023 383.673 39.8409C384.138 39.5795 384.371 39.125 384.371 38.4773V38.3409C384.371 36.6591 383.911 35.3523 382.991 34.4205C382.082 33.4886 380.701 33.0227 378.849 33.0227C376.928 33.0227 375.423 33.4432 374.332 34.2841C373.241 35.125 372.474 36.0227 372.031 36.9773L368.212 35.6136C368.894 34.0227 369.803 32.7841 370.94 31.8977C372.087 31 373.337 30.375 374.69 30.0227C376.053 29.6591 377.394 29.4773 378.712 29.4773C379.553 29.4773 380.519 29.5795 381.61 29.7841C382.712 29.9773 383.775 30.3807 384.798 30.9943C385.832 31.608 386.69 32.5341 387.371 33.7727C388.053 35.0114 388.394 36.6705 388.394 38.75V56H384.371V52.4545H384.167C383.894 53.0227 383.44 53.6307 382.803 54.2784C382.167 54.9261 381.32 55.4773 380.263 55.9318C379.207 56.3864 377.917 56.6136 376.394 56.6136ZM377.008 53C378.599 53 379.94 52.6875 381.031 52.0625C382.133 51.4375 382.962 50.6307 383.519 49.642C384.087 48.6534 384.371 47.6136 384.371 46.5227V42.8409C384.201 43.0455 383.826 43.233 383.246 43.4034C382.678 43.5625 382.019 43.7045 381.269 43.8295C380.531 43.9432 379.809 44.0455 379.104 44.1364C378.411 44.2159 377.849 44.2841 377.417 44.3409C376.371 44.4773 375.394 44.6989 374.485 45.0057C373.587 45.3011 372.86 45.75 372.303 46.3523C371.758 46.9432 371.485 47.75 371.485 48.7727C371.485 50.1705 372.002 51.2273 373.036 51.9432C374.082 52.6477 375.406 53 377.008 53ZM394.987 56V52.9318L409.85 33.8409V33.5682H395.464V29.8182H415.032V33.0227L400.577 51.9773V52.25H415.509V56H394.987ZM421.705 56V29.8182H425.728V56H421.705ZM423.751 25.4545C422.967 25.4545 422.29 25.1875 421.722 24.6534C421.165 24.1193 420.887 23.4773 420.887 22.7273C420.887 21.9773 421.165 21.3352 421.722 20.8011C422.29 20.267 422.967 20 423.751 20C424.535 20 425.205 20.267 425.762 20.8011C426.33 21.3352 426.614 21.9773 426.614 22.7273C426.614 23.4773 426.33 24.1193 425.762 24.6534C425.205 25.1875 424.535 25.4545 423.751 25.4545ZM443.732 56.5455C441.369 56.5455 439.295 55.983 437.511 54.858C435.738 53.733 434.352 52.1591 433.352 50.1364C432.363 48.1136 431.869 45.75 431.869 43.0455C431.869 40.3182 432.363 37.9375 433.352 35.9034C434.352 33.8693 435.738 32.2898 437.511 31.1648C439.295 30.0398 441.369 29.4773 443.732 29.4773C446.096 29.4773 448.164 30.0398 449.937 31.1648C451.721 32.2898 453.107 33.8693 454.096 35.9034C455.096 37.9375 455.596 40.3182 455.596 43.0455C455.596 45.75 455.096 48.1136 454.096 50.1364C453.107 52.1591 451.721 53.733 449.937 54.858C448.164 55.983 446.096 56.5455 443.732 56.5455ZM443.732 52.9318C445.528 52.9318 447.005 52.4716 448.164 51.5511C449.323 50.6307 450.181 49.4205 450.738 47.9205C451.295 46.4205 451.573 44.7955 451.573 43.0455C451.573 41.2955 451.295 39.6648 450.738 38.1534C450.181 36.642 449.323 35.4205 448.164 34.4886C447.005 33.5568 445.528 33.0909 443.732 33.0909C441.937 33.0909 440.46 33.5568 439.3 34.4886C438.141 35.4205 437.283 36.642 436.727 38.1534C436.17 39.6648 435.891 41.2955 435.891 43.0455C435.891 44.7955 436.17 46.4205 436.727 47.9205C437.283 49.4205 438.141 50.6307 439.3 51.5511C440.46 52.4716 441.937 52.9318 443.732 52.9318ZM465.759 40.25V56H461.737V29.8182H465.623V33.9091H465.964C466.577 32.5795 467.509 31.5114 468.759 30.7045C470.009 29.8864 471.623 29.4773 473.6 29.4773C475.373 29.4773 476.924 29.8409 478.254 30.5682C479.583 31.2841 480.617 32.375 481.356 33.8409C482.094 35.2955 482.464 37.1364 482.464 39.3636V56H478.441V39.6364C478.441 37.5795 477.907 35.9773 476.839 34.8295C475.771 33.6705 474.305 33.0909 472.441 33.0909C471.157 33.0909 470.009 33.3693 468.998 33.9261C467.998 34.483 467.208 35.2955 466.629 36.3636C466.049 37.4318 465.759 38.7273 465.759 40.25ZM489.815 56V29.8182H493.837V56H489.815ZM491.86 25.4545C491.076 25.4545 490.4 25.1875 489.832 24.6534C489.275 24.1193 488.996 23.4773 488.996 22.7273C488.996 21.9773 489.275 21.3352 489.832 20.8011C490.4 20.267 491.076 20 491.86 20C492.644 20 493.315 20.267 493.871 20.8011C494.44 21.3352 494.724 21.9773 494.724 22.7273C494.724 23.4773 494.44 24.1193 493.871 24.6534C493.315 25.1875 492.644 25.4545 491.86 25.4545Z" fill="black"/>
<path d="M181.685 258.841V255.091H207.867V258.841H196.89V290H192.663V258.841H181.685ZM211.127 290V263.818H215.013V267.773H215.286C215.763 266.477 216.627 265.426 217.877 264.619C219.127 263.812 220.536 263.409 222.104 263.409C222.4 263.409 222.769 263.415 223.212 263.426C223.656 263.437 223.991 263.455 224.218 263.477V267.568C224.082 267.534 223.769 267.483 223.281 267.415C222.803 267.335 222.298 267.295 221.763 267.295C220.491 267.295 219.354 267.562 218.354 268.097C217.366 268.619 216.582 269.347 216.002 270.278C215.434 271.199 215.15 272.25 215.15 273.432V290H211.127ZM236.691 290.614C235.032 290.614 233.526 290.301 232.174 289.676C230.822 289.04 229.748 288.125 228.952 286.932C228.157 285.727 227.759 284.273 227.759 282.568C227.759 281.068 228.055 279.852 228.646 278.92C229.237 277.977 230.026 277.239 231.015 276.705C232.004 276.17 233.094 275.773 234.288 275.511C235.492 275.239 236.702 275.023 237.918 274.864C239.509 274.659 240.799 274.506 241.788 274.403C242.788 274.29 243.515 274.102 243.969 273.841C244.435 273.58 244.668 273.125 244.668 272.477V272.341C244.668 270.659 244.208 269.352 243.288 268.42C242.379 267.489 240.998 267.023 239.146 267.023C237.225 267.023 235.719 267.443 234.629 268.284C233.538 269.125 232.771 270.023 232.327 270.977L228.509 269.614C229.191 268.023 230.1 266.784 231.237 265.898C232.384 265 233.634 264.375 234.987 264.023C236.35 263.659 237.691 263.477 239.009 263.477C239.85 263.477 240.816 263.58 241.907 263.784C243.009 263.977 244.072 264.381 245.094 264.994C246.129 265.608 246.987 266.534 247.668 267.773C248.35 269.011 248.691 270.67 248.691 272.75V290H244.668V286.455H244.464C244.191 287.023 243.737 287.631 243.1 288.278C242.464 288.926 241.617 289.477 240.56 289.932C239.504 290.386 238.214 290.614 236.691 290.614ZM237.305 287C238.896 287 240.237 286.688 241.327 286.062C242.43 285.438 243.259 284.631 243.816 283.642C244.384 282.653 244.668 281.614 244.668 280.523V276.841C244.498 277.045 244.123 277.233 243.543 277.403C242.975 277.562 242.316 277.705 241.566 277.83C240.827 277.943 240.106 278.045 239.401 278.136C238.708 278.216 238.146 278.284 237.714 278.341C236.668 278.477 235.691 278.699 234.782 279.006C233.884 279.301 233.157 279.75 232.6 280.352C232.055 280.943 231.782 281.75 231.782 282.773C231.782 284.17 232.299 285.227 233.333 285.943C234.379 286.648 235.702 287 237.305 287ZM274.579 269.682L270.965 270.705C270.738 270.102 270.403 269.517 269.96 268.949C269.528 268.369 268.937 267.892 268.187 267.517C267.437 267.142 266.477 266.955 265.306 266.955C263.704 266.955 262.369 267.324 261.3 268.062C260.244 268.79 259.715 269.716 259.715 270.841C259.715 271.841 260.079 272.631 260.806 273.21C261.533 273.79 262.67 274.273 264.215 274.659L268.102 275.614C270.442 276.182 272.187 277.051 273.335 278.222C274.482 279.381 275.056 280.875 275.056 282.705C275.056 284.205 274.624 285.545 273.761 286.727C272.908 287.909 271.715 288.841 270.181 289.523C268.647 290.205 266.863 290.545 264.829 290.545C262.158 290.545 259.948 289.966 258.198 288.807C256.448 287.648 255.34 285.955 254.874 283.727L258.692 282.773C259.056 284.182 259.744 285.239 260.755 285.943C261.778 286.648 263.113 287 264.761 287C266.636 287 268.124 286.602 269.227 285.807C270.34 285 270.897 284.034 270.897 282.909C270.897 282 270.579 281.239 269.942 280.625C269.306 280 268.329 279.534 267.011 279.227L262.647 278.205C260.249 277.636 258.488 276.756 257.363 275.562C256.249 274.358 255.692 272.852 255.692 271.045C255.692 269.568 256.107 268.261 256.937 267.125C257.778 265.989 258.92 265.097 260.363 264.449C261.817 263.801 263.465 263.477 265.306 263.477C267.897 263.477 269.931 264.045 271.408 265.182C272.897 266.318 273.954 267.818 274.579 269.682ZM281.112 299.818V263.818H284.998V267.977H285.475C285.771 267.523 286.18 266.943 286.702 266.239C287.237 265.523 287.998 264.886 288.987 264.33C289.987 263.761 291.339 263.477 293.043 263.477C295.248 263.477 297.191 264.028 298.873 265.131C300.555 266.233 301.867 267.795 302.81 269.818C303.754 271.841 304.225 274.227 304.225 276.977C304.225 279.75 303.754 282.153 302.81 284.188C301.867 286.21 300.56 287.778 298.89 288.892C297.219 289.994 295.293 290.545 293.112 290.545C291.43 290.545 290.083 290.267 289.072 289.71C288.06 289.142 287.282 288.5 286.737 287.784C286.191 287.057 285.771 286.455 285.475 285.977H285.134V299.818H281.112ZM285.066 276.909C285.066 278.886 285.356 280.631 285.935 282.142C286.515 283.642 287.362 284.818 288.475 285.67C289.589 286.511 290.952 286.932 292.566 286.932C294.248 286.932 295.651 286.489 296.776 285.602C297.913 284.705 298.765 283.5 299.333 281.989C299.913 280.466 300.202 278.773 300.202 276.909C300.202 275.068 299.918 273.409 299.35 271.932C298.793 270.443 297.947 269.267 296.81 268.403C295.685 267.528 294.271 267.091 292.566 267.091C290.93 267.091 289.555 267.506 288.441 268.335C287.327 269.153 286.487 270.301 285.918 271.778C285.35 273.244 285.066 274.955 285.066 276.909ZM320.998 290.545C318.634 290.545 316.56 289.983 314.776 288.858C313.004 287.733 311.617 286.159 310.617 284.136C309.629 282.114 309.134 279.75 309.134 277.045C309.134 274.318 309.629 271.937 310.617 269.903C311.617 267.869 313.004 266.29 314.776 265.165C316.56 264.04 318.634 263.477 320.998 263.477C323.362 263.477 325.43 264.04 327.202 265.165C328.987 266.29 330.373 267.869 331.362 269.903C332.362 271.937 332.862 274.318 332.862 277.045C332.862 279.75 332.362 282.114 331.362 284.136C330.373 286.159 328.987 287.733 327.202 288.858C325.43 289.983 323.362 290.545 320.998 290.545ZM320.998 286.932C322.793 286.932 324.271 286.472 325.43 285.551C326.589 284.631 327.447 283.42 328.004 281.92C328.56 280.42 328.839 278.795 328.839 277.045C328.839 275.295 328.56 273.665 328.004 272.153C327.447 270.642 326.589 269.42 325.43 268.489C324.271 267.557 322.793 267.091 320.998 267.091C319.202 267.091 317.725 267.557 316.566 268.489C315.407 269.42 314.549 270.642 313.992 272.153C313.435 273.665 313.157 275.295 313.157 277.045C313.157 278.795 313.435 280.42 313.992 281.92C314.549 283.42 315.407 284.631 316.566 285.551C317.725 286.472 319.202 286.932 320.998 286.932ZM339.002 290V263.818H342.888V267.773H343.161C343.638 266.477 344.502 265.426 345.752 264.619C347.002 263.812 348.411 263.409 349.979 263.409C350.275 263.409 350.644 263.415 351.087 263.426C351.531 263.437 351.866 263.455 352.093 263.477V267.568C351.957 267.534 351.644 267.483 351.156 267.415C350.678 267.335 350.173 267.295 349.638 267.295C348.366 267.295 347.229 267.562 346.229 268.097C345.241 268.619 344.457 269.347 343.877 270.278C343.309 271.199 343.025 272.25 343.025 273.432V290H339.002ZM369.888 263.818V267.227H356.32V263.818H369.888ZM360.275 257.545H364.298V282.5C364.298 283.636 364.462 284.489 364.792 285.057C365.133 285.614 365.565 285.989 366.087 286.182C366.621 286.364 367.184 286.455 367.775 286.455C368.218 286.455 368.582 286.432 368.866 286.386C369.15 286.33 369.377 286.284 369.548 286.25L370.366 289.864C370.093 289.966 369.712 290.068 369.224 290.17C368.735 290.284 368.116 290.341 367.366 290.341C366.229 290.341 365.116 290.097 364.025 289.608C362.945 289.119 362.048 288.375 361.332 287.375C360.627 286.375 360.275 285.114 360.275 283.591V257.545ZM386.295 290.545C383.931 290.545 381.857 289.983 380.073 288.858C378.3 287.733 376.914 286.159 375.914 284.136C374.925 282.114 374.431 279.75 374.431 277.045C374.431 274.318 374.925 271.937 375.914 269.903C376.914 267.869 378.3 266.29 380.073 265.165C381.857 264.04 383.931 263.477 386.295 263.477C388.658 263.477 390.727 264.04 392.499 265.165C394.283 266.29 395.67 267.869 396.658 269.903C397.658 271.937 398.158 274.318 398.158 277.045C398.158 279.75 397.658 282.114 396.658 284.136C395.67 286.159 394.283 287.733 392.499 288.858C390.727 289.983 388.658 290.545 386.295 290.545ZM386.295 286.932C388.09 286.932 389.567 286.472 390.727 285.551C391.886 284.631 392.744 283.42 393.3 281.92C393.857 280.42 394.136 278.795 394.136 277.045C394.136 275.295 393.857 273.665 393.3 272.153C392.744 270.642 391.886 269.42 390.727 268.489C389.567 267.557 388.09 267.091 386.295 267.091C384.499 267.091 383.022 267.557 381.863 268.489C380.704 269.42 379.846 270.642 379.289 272.153C378.732 273.665 378.454 275.295 378.454 277.045C378.454 278.795 378.732 280.42 379.289 281.92C379.846 283.42 380.704 284.631 381.863 285.551C383.022 286.472 384.499 286.932 386.295 286.932ZM419.231 272.545C419.231 268.25 419.788 264.301 420.901 260.699C422.026 257.085 423.629 253.761 425.708 250.727H429.254C428.435 251.852 427.668 253.239 426.952 254.886C426.248 256.523 425.629 258.324 425.094 260.29C424.56 262.244 424.14 264.267 423.833 266.358C423.538 268.449 423.39 270.511 423.39 272.545C423.39 275.25 423.651 277.994 424.174 280.778C424.697 283.562 425.401 286.148 426.288 288.534C427.174 290.92 428.163 292.864 429.254 294.364H425.708C423.629 291.33 422.026 288.011 420.901 284.409C419.788 280.795 419.231 276.841 419.231 272.545ZM433.826 258.841V255.091H460.008V258.841H449.031V290H444.803V258.841H433.826ZM493.17 266H488.942C488.692 264.784 488.255 263.716 487.63 262.795C487.016 261.875 486.266 261.102 485.38 260.477C484.505 259.841 483.533 259.364 482.465 259.045C481.397 258.727 480.283 258.568 479.124 258.568C477.011 258.568 475.096 259.102 473.38 260.17C471.675 261.239 470.317 262.812 469.306 264.892C468.306 266.972 467.806 269.523 467.806 272.545C467.806 275.568 468.306 278.119 469.306 280.199C470.317 282.278 471.675 283.852 473.38 284.92C475.096 285.989 477.011 286.523 479.124 286.523C480.283 286.523 481.397 286.364 482.465 286.045C483.533 285.727 484.505 285.256 485.38 284.631C486.266 283.994 487.016 283.216 487.63 282.295C488.255 281.364 488.692 280.295 488.942 279.091H493.17C492.852 280.875 492.272 282.472 491.431 283.881C490.59 285.29 489.545 286.489 488.295 287.477C487.045 288.455 485.641 289.199 484.085 289.71C482.539 290.222 480.886 290.477 479.124 290.477C476.147 290.477 473.499 289.75 471.181 288.295C468.863 286.841 467.039 284.773 465.71 282.091C464.38 279.409 463.715 276.227 463.715 272.545C463.715 268.864 464.38 265.682 465.71 263C467.039 260.318 468.863 258.25 471.181 256.795C473.499 255.341 476.147 254.614 479.124 254.614C480.886 254.614 482.539 254.869 484.085 255.381C485.641 255.892 487.045 256.642 488.295 257.631C489.545 258.608 490.59 259.801 491.431 261.21C492.272 262.608 492.852 264.205 493.17 266ZM500.001 290V255.091H511.796C514.535 255.091 516.773 255.585 518.512 256.574C520.262 257.551 521.558 258.875 522.398 260.545C523.239 262.216 523.66 264.08 523.66 266.136C523.66 268.193 523.239 270.062 522.398 271.744C521.569 273.426 520.285 274.767 518.546 275.767C516.808 276.756 514.58 277.25 511.864 277.25H503.41V273.5H511.728C513.603 273.5 515.109 273.176 516.245 272.528C517.381 271.881 518.205 271.006 518.717 269.903C519.239 268.79 519.501 267.534 519.501 266.136C519.501 264.739 519.239 263.489 518.717 262.386C518.205 261.284 517.376 260.42 516.228 259.795C515.08 259.159 513.558 258.841 511.66 258.841H504.228V290H500.001ZM538.515 272.545C538.515 276.841 537.952 280.795 536.827 284.409C535.714 288.011 534.117 291.33 532.038 294.364H528.492C529.31 293.239 530.072 291.852 530.776 290.205C531.492 288.568 532.117 286.773 532.651 284.818C533.185 282.852 533.6 280.824 533.896 278.733C534.202 276.631 534.356 274.568 534.356 272.545C534.356 269.841 534.094 267.097 533.572 264.312C533.049 261.528 532.344 258.943 531.458 256.557C530.572 254.17 529.583 252.227 528.492 250.727H532.038C534.117 253.761 535.714 257.085 536.827 260.699C537.952 264.301 538.515 268.25 538.515 272.545Z" fill="black"/>
</svg>
