<svg width="1448" height="1080" viewBox="0 0 1448 1080" fill="none" xmlns="http://www.w3.org/2000/svg">
<rect width="1448" height="1080" fill="white"/>
<path d="M282.876 454C288.264 444.667 301.736 444.667 307.124 454L428.368 664C433.757 673.333 427.021 685 416.244 685H173.756C162.979 685 156.243 673.333 161.632 664L282.876 454Z" fill="black"/>
<circle cx="660.5" cy="600.672" r="81.5" fill="#D9D9D9"/>
<circle cx="950.5" cy="600.672" r="81.5" fill="#D9D9D9"/>
<circle cx="1240.5" cy="600.672" r="81.5" fill="#D9D9D9"/>
<path d="M254.307 261.545C254.307 265.227 253.642 268.409 252.312 271.091C250.983 273.773 249.159 275.841 246.841 277.295C244.523 278.75 241.875 279.477 238.898 279.477C235.92 279.477 233.273 278.75 230.955 277.295C228.636 275.841 226.813 273.773 225.483 271.091C224.153 268.409 223.489 265.227 223.489 261.545C223.489 257.864 224.153 254.682 225.483 252C226.813 249.318 228.636 247.25 230.955 245.795C233.273 244.341 235.92 243.614 238.898 243.614C241.875 243.614 244.523 244.341 246.841 245.795C249.159 247.25 250.983 249.318 252.312 252C253.642 254.682 254.307 257.864 254.307 261.545ZM250.216 261.545C250.216 258.523 249.71 255.972 248.699 253.892C247.699 251.812 246.341 250.239 244.625 249.17C242.92 248.102 241.011 247.568 238.898 247.568C236.784 247.568 234.869 248.102 233.153 249.17C231.449 250.239 230.091 251.812 229.08 253.892C228.08 255.972 227.58 258.523 227.58 261.545C227.58 264.568 228.08 267.119 229.08 269.199C230.091 271.278 231.449 272.852 233.153 273.92C234.869 274.989 236.784 275.523 238.898 275.523C241.011 275.523 242.92 274.989 244.625 273.92C246.341 272.852 247.699 271.278 248.699 269.199C249.71 267.119 250.216 264.568 250.216 261.545ZM264.892 263.25V279H260.869V252.818H264.756V256.909H265.097C265.71 255.58 266.642 254.511 267.892 253.705C269.142 252.886 270.756 252.477 272.733 252.477C274.506 252.477 276.057 252.841 277.386 253.568C278.716 254.284 279.75 255.375 280.489 256.841C281.227 258.295 281.597 260.136 281.597 262.364V279H277.574V262.636C277.574 260.58 277.04 258.977 275.972 257.83C274.903 256.67 273.438 256.091 271.574 256.091C270.29 256.091 269.142 256.369 268.131 256.926C267.131 257.483 266.341 258.295 265.761 259.364C265.182 260.432 264.892 261.727 264.892 263.25ZM288.947 279V252.818H292.97V279H288.947ZM290.993 248.455C290.209 248.455 289.533 248.188 288.964 247.653C288.408 247.119 288.129 246.477 288.129 245.727C288.129 244.977 288.408 244.335 288.964 243.801C289.533 243.267 290.209 243 290.993 243C291.777 243 292.447 243.267 293.004 243.801C293.572 244.335 293.857 244.977 293.857 245.727C293.857 246.477 293.572 247.119 293.004 247.653C292.447 248.188 291.777 248.455 290.993 248.455ZM310.974 279.545C308.611 279.545 306.537 278.983 304.753 277.858C302.98 276.733 301.594 275.159 300.594 273.136C299.605 271.114 299.111 268.75 299.111 266.045C299.111 263.318 299.605 260.937 300.594 258.903C301.594 256.869 302.98 255.29 304.753 254.165C306.537 253.04 308.611 252.477 310.974 252.477C313.338 252.477 315.406 253.04 317.179 254.165C318.963 255.29 320.349 256.869 321.338 258.903C322.338 260.937 322.838 263.318 322.838 266.045C322.838 268.75 322.338 271.114 321.338 273.136C320.349 275.159 318.963 276.733 317.179 277.858C315.406 278.983 313.338 279.545 310.974 279.545ZM310.974 275.932C312.77 275.932 314.247 275.472 315.406 274.551C316.565 273.631 317.423 272.42 317.98 270.92C318.537 269.42 318.815 267.795 318.815 266.045C318.815 264.295 318.537 262.665 317.98 261.153C317.423 259.642 316.565 258.42 315.406 257.489C314.247 256.557 312.77 256.091 310.974 256.091C309.179 256.091 307.702 256.557 306.543 257.489C305.384 258.42 304.526 259.642 303.969 261.153C303.412 262.665 303.134 264.295 303.134 266.045C303.134 267.795 303.412 269.42 303.969 270.92C304.526 272.42 305.384 273.631 306.543 274.551C307.702 275.472 309.179 275.932 310.974 275.932ZM333.001 263.25V279H328.979V252.818H332.865V256.909H333.206C333.82 255.58 334.751 254.511 336.001 253.705C337.251 252.886 338.865 252.477 340.842 252.477C342.615 252.477 344.166 252.841 345.496 253.568C346.825 254.284 347.859 255.375 348.598 256.841C349.337 258.295 349.706 260.136 349.706 262.364V279H345.683V262.636C345.683 260.58 345.149 258.977 344.081 257.83C343.013 256.67 341.547 256.091 339.683 256.091C338.399 256.091 337.251 256.369 336.24 256.926C335.24 257.483 334.45 258.295 333.871 259.364C333.291 260.432 333.001 261.727 333.001 263.25Z" fill="black"/>
<path d="M252.568 843.841V840.091H278.75V843.841H267.773V875H263.545V843.841H252.568ZM291.568 875.545C289.205 875.545 287.131 874.983 285.347 873.858C283.574 872.733 282.188 871.159 281.188 869.136C280.199 867.114 279.705 864.75 279.705 862.045C279.705 859.318 280.199 856.937 281.188 854.903C282.188 852.869 283.574 851.29 285.347 850.165C287.131 849.04 289.205 848.477 291.568 848.477C293.932 848.477 296 849.04 297.773 850.165C299.557 851.29 300.943 852.869 301.932 854.903C302.932 856.937 303.432 859.318 303.432 862.045C303.432 864.75 302.932 867.114 301.932 869.136C300.943 871.159 299.557 872.733 297.773 873.858C296 874.983 293.932 875.545 291.568 875.545ZM291.568 871.932C293.364 871.932 294.841 871.472 296 870.551C297.159 869.631 298.017 868.42 298.574 866.92C299.131 865.42 299.409 863.795 299.409 862.045C299.409 860.295 299.131 858.665 298.574 857.153C298.017 855.642 297.159 854.42 296 853.489C294.841 852.557 293.364 852.091 291.568 852.091C289.773 852.091 288.295 852.557 287.136 853.489C285.977 854.42 285.119 855.642 284.562 857.153C284.006 858.665 283.727 860.295 283.727 862.045C283.727 863.795 284.006 865.42 284.562 866.92C285.119 868.42 285.977 869.631 287.136 870.551C288.295 871.472 289.773 871.932 291.568 871.932ZM309.572 875V848.818H313.459V852.773H313.732C314.209 851.477 315.072 850.426 316.322 849.619C317.572 848.812 318.982 848.409 320.55 848.409C320.845 848.409 321.214 848.415 321.658 848.426C322.101 848.437 322.436 848.455 322.663 848.477V852.568C322.527 852.534 322.214 852.483 321.726 852.415C321.249 852.335 320.743 852.295 320.209 852.295C318.936 852.295 317.8 852.562 316.8 853.097C315.811 853.619 315.027 854.347 314.447 855.278C313.879 856.199 313.595 857.25 313.595 858.432V875H309.572Z" fill="black"/>
<path d="M658.502 519.102C658.463 519.929 659.102 520.632 659.929 520.671L673.415 521.306C674.242 521.345 674.944 520.705 674.983 519.878C675.022 519.05 674.383 518.348 673.556 518.309L661.569 517.745L662.133 505.758C662.172 504.93 661.533 504.228 660.706 504.189C659.878 504.15 659.176 504.789 659.137 505.617L658.502 519.102ZM953.471 517.357C895.334 467.994 849.808 442.395 804.616 442.173C759.398 441.95 714.959 467.128 658.99 518.063L661.01 520.282C716.869 469.446 760.576 444.956 804.601 445.173C848.651 445.39 893.461 470.34 951.529 519.643L953.471 517.357Z" fill="black"/>
<path d="M951.002 518.429C950.963 519.257 951.602 519.959 952.429 519.998L965.915 520.633C966.742 520.672 967.444 520.033 967.483 519.205C967.522 518.378 966.883 517.676 966.056 517.637L954.069 517.072L954.633 505.085C954.672 504.258 954.033 503.556 953.205 503.517C952.378 503.478 951.676 504.117 951.637 504.944L951.002 518.429ZM1245.49 518.029C1187.35 468.671 1141.95 442.736 1096.88 442.173C1051.78 441.609 1007.46 466.454 951.49 517.391L953.51 519.609C1009.37 468.776 1052.95 444.624 1096.85 445.172C1140.78 445.721 1185.47 471.007 1243.54 520.316L1245.49 518.029Z" fill="black"/>
<path d="M268.455 581.364C268.455 583.818 268.011 585.939 267.125 587.727C266.239 589.515 265.023 590.894 263.477 591.864C261.932 592.833 260.167 593.318 258.182 593.318C256.197 593.318 254.432 592.833 252.886 591.864C251.341 590.894 250.125 589.515 249.239 587.727C248.352 585.939 247.909 583.818 247.909 581.364C247.909 578.909 248.352 576.788 249.239 575C250.125 573.212 251.341 571.833 252.886 570.864C254.432 569.894 256.197 569.409 258.182 569.409C260.167 569.409 261.932 569.894 263.477 570.864C265.023 571.833 266.239 573.212 267.125 575C268.011 576.788 268.455 578.909 268.455 581.364ZM265.727 581.364C265.727 579.348 265.39 577.648 264.716 576.261C264.049 574.875 263.144 573.826 262 573.114C260.864 572.402 259.591 572.045 258.182 572.045C256.773 572.045 255.496 572.402 254.352 573.114C253.216 573.826 252.311 574.875 251.636 576.261C250.97 577.648 250.636 579.348 250.636 581.364C250.636 583.379 250.97 585.08 251.636 586.466C252.311 587.852 253.216 588.902 254.352 589.614C255.496 590.326 256.773 590.682 258.182 590.682C259.591 590.682 260.864 590.326 262 589.614C263.144 588.902 264.049 587.852 264.716 586.466C265.39 585.08 265.727 583.379 265.727 581.364ZM275.511 582.5V593H272.83V575.545H275.42V578.273H275.648C276.057 577.386 276.678 576.674 277.511 576.136C278.345 575.591 279.42 575.318 280.739 575.318C281.92 575.318 282.955 575.561 283.841 576.045C284.727 576.523 285.417 577.25 285.909 578.227C286.402 579.197 286.648 580.424 286.648 581.909V593H283.966V582.091C283.966 580.72 283.61 579.652 282.898 578.886C282.186 578.114 281.208 577.727 279.966 577.727C279.11 577.727 278.345 577.913 277.67 578.284C277.004 578.655 276.477 579.197 276.091 579.909C275.705 580.621 275.511 581.485 275.511 582.5ZM291.548 593V575.545H294.23V593H291.548ZM292.912 572.636C292.389 572.636 291.938 572.458 291.56 572.102C291.188 571.746 291.003 571.318 291.003 570.818C291.003 570.318 291.188 569.89 291.56 569.534C291.938 569.178 292.389 569 292.912 569C293.435 569 293.882 569.178 294.253 569.534C294.632 569.89 294.821 570.318 294.821 570.818C294.821 571.318 294.632 571.746 294.253 572.102C293.882 572.458 293.435 572.636 292.912 572.636ZM306.233 593.364C304.657 593.364 303.275 592.989 302.085 592.239C300.903 591.489 299.979 590.439 299.312 589.091C298.653 587.742 298.324 586.167 298.324 584.364C298.324 582.545 298.653 580.958 299.312 579.602C299.979 578.246 300.903 577.193 302.085 576.443C303.275 575.693 304.657 575.318 306.233 575.318C307.809 575.318 309.188 575.693 310.369 576.443C311.559 577.193 312.483 578.246 313.142 579.602C313.809 580.958 314.142 582.545 314.142 584.364C314.142 586.167 313.809 587.742 313.142 589.091C312.483 590.439 311.559 591.489 310.369 592.239C309.188 592.989 307.809 593.364 306.233 593.364ZM306.233 590.955C307.43 590.955 308.415 590.648 309.188 590.034C309.96 589.42 310.532 588.614 310.903 587.614C311.275 586.614 311.46 585.53 311.46 584.364C311.46 583.197 311.275 582.11 310.903 581.102C310.532 580.095 309.96 579.28 309.188 578.659C308.415 578.038 307.43 577.727 306.233 577.727C305.036 577.727 304.051 578.038 303.278 578.659C302.506 579.28 301.934 580.095 301.562 581.102C301.191 582.11 301.006 583.197 301.006 584.364C301.006 585.53 301.191 586.614 301.562 587.614C301.934 588.614 302.506 589.42 303.278 590.034C304.051 590.648 305.036 590.955 306.233 590.955ZM320.918 582.5V593H318.236V575.545H320.827V578.273H321.054C321.463 577.386 322.084 576.674 322.918 576.136C323.751 575.591 324.827 575.318 326.145 575.318C327.327 575.318 328.361 575.561 329.247 576.045C330.134 576.523 330.823 577.25 331.315 578.227C331.808 579.197 332.054 580.424 332.054 581.909V593H329.372V582.091C329.372 580.72 329.016 579.652 328.304 578.886C327.592 578.114 326.615 577.727 325.372 577.727C324.516 577.727 323.751 577.913 323.077 578.284C322.41 578.655 321.884 579.197 321.497 579.909C321.111 580.621 320.918 581.485 320.918 582.5ZM248.818 632V608.727H256.682C258.508 608.727 260 609.057 261.159 609.716C262.326 610.367 263.189 611.25 263.75 612.364C264.311 613.477 264.591 614.72 264.591 616.091C264.591 617.462 264.311 618.708 263.75 619.83C263.197 620.951 262.341 621.845 261.182 622.511C260.023 623.17 258.538 623.5 256.727 623.5H251.091V621H256.636C257.886 621 258.89 620.784 259.648 620.352C260.405 619.92 260.955 619.337 261.295 618.602C261.644 617.86 261.818 617.023 261.818 616.091C261.818 615.159 261.644 614.326 261.295 613.591C260.955 612.856 260.402 612.28 259.636 611.864C258.871 611.439 257.856 611.227 256.591 611.227H251.636V632H248.818ZM268.767 632V614.545H271.358V617.182H271.54C271.858 616.318 272.434 615.617 273.267 615.08C274.1 614.542 275.04 614.273 276.085 614.273C276.282 614.273 276.528 614.277 276.824 614.284C277.119 614.292 277.343 614.303 277.494 614.318V617.045C277.403 617.023 277.195 616.989 276.869 616.943C276.551 616.89 276.214 616.864 275.858 616.864C275.009 616.864 274.252 617.042 273.585 617.398C272.926 617.746 272.403 618.231 272.017 618.852C271.638 619.466 271.449 620.167 271.449 620.955V632H268.767ZM287.233 632.364C285.657 632.364 284.275 631.989 283.085 631.239C281.903 630.489 280.979 629.439 280.312 628.091C279.653 626.742 279.324 625.167 279.324 623.364C279.324 621.545 279.653 619.958 280.312 618.602C280.979 617.246 281.903 616.193 283.085 615.443C284.275 614.693 285.657 614.318 287.233 614.318C288.809 614.318 290.188 614.693 291.369 615.443C292.559 616.193 293.483 617.246 294.142 618.602C294.809 619.958 295.142 621.545 295.142 623.364C295.142 625.167 294.809 626.742 294.142 628.091C293.483 629.439 292.559 630.489 291.369 631.239C290.188 631.989 288.809 632.364 287.233 632.364ZM287.233 629.955C288.43 629.955 289.415 629.648 290.188 629.034C290.96 628.42 291.532 627.614 291.903 626.614C292.275 625.614 292.46 624.53 292.46 623.364C292.46 622.197 292.275 621.11 291.903 620.102C291.532 619.095 290.96 618.28 290.188 617.659C289.415 617.038 288.43 616.727 287.233 616.727C286.036 616.727 285.051 617.038 284.278 617.659C283.506 618.28 282.934 619.095 282.562 620.102C282.191 621.11 282.006 622.197 282.006 623.364C282.006 624.53 282.191 625.614 282.562 626.614C282.934 627.614 283.506 628.42 284.278 629.034C285.051 629.648 286.036 629.955 287.233 629.955ZM300.517 614.545L304.699 621.682L308.881 614.545H311.972L306.335 623.273L311.972 632H308.881L304.699 625.227L300.517 632H297.426L302.972 623.273L297.426 614.545H300.517ZM317.526 638.545C317.071 638.545 316.666 638.508 316.31 638.432C315.954 638.364 315.707 638.295 315.571 638.227L316.253 635.864C316.904 636.03 317.48 636.091 317.98 636.045C318.48 636 318.923 635.777 319.31 635.375C319.704 634.981 320.063 634.341 320.389 633.455L320.889 632.091L314.435 614.545H317.344L322.162 628.455H322.344L327.162 614.545H330.071L322.662 634.545C322.329 635.447 321.916 636.193 321.423 636.784C320.931 637.383 320.359 637.826 319.707 638.114C319.063 638.402 318.336 638.545 317.526 638.545Z" fill="white"/>
<path d="M615.227 591.545V609H613.114V591.545H615.227ZM621.204 601.125V609H619.192V595.909H621.136V597.955H621.306C621.613 597.29 622.079 596.756 622.704 596.352C623.329 595.943 624.136 595.739 625.124 595.739C626.011 595.739 626.786 595.92 627.451 596.284C628.116 596.642 628.633 597.188 629.002 597.92C629.371 598.648 629.556 599.568 629.556 600.682V609H627.545V600.818C627.545 599.79 627.278 598.989 626.744 598.415C626.21 597.835 625.477 597.545 624.545 597.545C623.903 597.545 623.329 597.685 622.823 597.963C622.323 598.241 621.928 598.648 621.638 599.182C621.349 599.716 621.204 600.364 621.204 601.125ZM638.516 614.182C637.544 614.182 636.709 614.057 636.01 613.807C635.311 613.562 634.729 613.239 634.263 612.835C633.803 612.438 633.436 612.011 633.163 611.557L634.766 610.432C634.947 610.67 635.178 610.943 635.456 611.25C635.734 611.562 636.115 611.832 636.598 612.06C637.087 612.293 637.726 612.409 638.516 612.409C639.572 612.409 640.445 612.153 641.132 611.642C641.82 611.131 642.163 610.33 642.163 609.239V606.58H641.993C641.845 606.818 641.635 607.114 641.362 607.466C641.095 607.812 640.709 608.122 640.203 608.395C639.703 608.662 639.027 608.795 638.175 608.795C637.118 608.795 636.169 608.545 635.328 608.045C634.493 607.545 633.831 606.818 633.342 605.864C632.859 604.909 632.618 603.75 632.618 602.386C632.618 601.045 632.854 599.878 633.325 598.884C633.797 597.884 634.453 597.111 635.294 596.565C636.135 596.014 637.107 595.739 638.209 595.739C639.061 595.739 639.737 595.881 640.237 596.165C640.743 596.443 641.129 596.761 641.396 597.119C641.669 597.472 641.879 597.761 642.027 597.989H642.232V595.909H644.175V609.375C644.175 610.5 643.919 611.415 643.408 612.119C642.902 612.83 642.22 613.349 641.362 613.679C640.51 614.014 639.561 614.182 638.516 614.182ZM638.447 606.989C639.254 606.989 639.936 606.804 640.493 606.435C641.05 606.065 641.473 605.534 641.763 604.841C642.053 604.148 642.197 603.318 642.197 602.352C642.197 601.409 642.055 600.577 641.771 599.855C641.487 599.134 641.067 598.568 640.51 598.159C639.953 597.75 639.266 597.545 638.447 597.545C637.595 597.545 636.885 597.761 636.317 598.193C635.754 598.625 635.331 599.205 635.047 599.932C634.768 600.659 634.629 601.466 634.629 602.352C634.629 603.261 634.771 604.065 635.055 604.764C635.345 605.457 635.771 606.003 636.334 606.401C636.902 606.793 637.607 606.989 638.447 606.989ZM647.857 609V595.909H649.8V597.886H649.936C650.175 597.239 650.607 596.713 651.232 596.31C651.857 595.906 652.561 595.705 653.345 595.705C653.493 595.705 653.678 595.707 653.899 595.713C654.121 595.719 654.288 595.727 654.402 595.739V597.784C654.334 597.767 654.178 597.741 653.933 597.707C653.695 597.668 653.442 597.648 653.175 597.648C652.538 597.648 651.97 597.781 651.47 598.048C650.976 598.31 650.584 598.673 650.294 599.139C650.01 599.599 649.868 600.125 649.868 600.716V609H647.857ZM661.876 609.273C660.615 609.273 659.527 608.994 658.612 608.438C657.703 607.875 657.001 607.091 656.507 606.085C656.018 605.074 655.774 603.898 655.774 602.557C655.774 601.216 656.018 600.034 656.507 599.011C657.001 597.983 657.689 597.182 658.57 596.608C659.456 596.028 660.49 595.739 661.672 595.739C662.354 595.739 663.027 595.852 663.692 596.08C664.357 596.307 664.962 596.676 665.507 597.188C666.053 597.693 666.487 598.364 666.811 599.199C667.135 600.034 667.297 601.062 667.297 602.284V603.136H657.206V601.398H665.251C665.251 600.659 665.104 600 664.808 599.42C664.518 598.841 664.104 598.384 663.564 598.048C663.03 597.713 662.399 597.545 661.672 597.545C660.871 597.545 660.178 597.744 659.592 598.142C659.013 598.534 658.567 599.045 658.254 599.676C657.942 600.307 657.786 600.983 657.786 601.705V602.864C657.786 603.852 657.956 604.69 658.297 605.378C658.643 606.06 659.124 606.58 659.737 606.938C660.351 607.29 661.064 607.466 661.876 607.466C662.405 607.466 662.882 607.392 663.308 607.244C663.74 607.091 664.112 606.864 664.425 606.562C664.737 606.256 664.979 605.875 665.149 605.42L667.092 605.966C666.888 606.625 666.544 607.205 666.061 607.705C665.578 608.199 664.982 608.585 664.271 608.864C663.561 609.136 662.763 609.273 661.876 609.273ZM679.629 598.841L677.822 599.352C677.709 599.051 677.541 598.759 677.32 598.474C677.104 598.185 676.808 597.946 676.433 597.759C676.058 597.571 675.578 597.477 674.993 597.477C674.192 597.477 673.524 597.662 672.99 598.031C672.462 598.395 672.197 598.858 672.197 599.42C672.197 599.92 672.379 600.315 672.743 600.605C673.107 600.895 673.675 601.136 674.447 601.33L676.391 601.807C677.561 602.091 678.433 602.526 679.007 603.111C679.581 603.69 679.868 604.437 679.868 605.352C679.868 606.102 679.652 606.773 679.22 607.364C678.794 607.955 678.197 608.42 677.43 608.761C676.663 609.102 675.771 609.273 674.754 609.273C673.419 609.273 672.314 608.983 671.439 608.403C670.564 607.824 670.01 606.977 669.777 605.864L671.686 605.386C671.868 606.091 672.212 606.619 672.717 606.972C673.229 607.324 673.896 607.5 674.72 607.5C675.658 607.5 676.402 607.301 676.953 606.903C677.51 606.5 677.788 606.017 677.788 605.455C677.788 605 677.629 604.619 677.311 604.312C676.993 604 676.504 603.767 675.845 603.614L673.663 603.102C672.464 602.818 671.584 602.378 671.021 601.781C670.464 601.179 670.186 600.426 670.186 599.523C670.186 598.784 670.393 598.131 670.808 597.562C671.229 596.994 671.8 596.548 672.521 596.224C673.249 595.901 674.072 595.739 674.993 595.739C676.288 595.739 677.305 596.023 678.044 596.591C678.788 597.159 679.317 597.909 679.629 598.841ZM692.168 598.841L690.362 599.352C690.248 599.051 690.08 598.759 689.859 598.474C689.643 598.185 689.347 597.946 688.972 597.759C688.597 597.571 688.117 597.477 687.532 597.477C686.731 597.477 686.063 597.662 685.529 598.031C685.001 598.395 684.737 598.858 684.737 599.42C684.737 599.92 684.918 600.315 685.282 600.605C685.646 600.895 686.214 601.136 686.987 601.33L688.93 601.807C690.1 602.091 690.972 602.526 691.546 603.111C692.12 603.69 692.407 604.437 692.407 605.352C692.407 606.102 692.191 606.773 691.759 607.364C691.333 607.955 690.737 608.42 689.969 608.761C689.202 609.102 688.31 609.273 687.293 609.273C685.958 609.273 684.853 608.983 683.978 608.403C683.103 607.824 682.549 606.977 682.316 605.864L684.225 605.386C684.407 606.091 684.751 606.619 685.256 606.972C685.768 607.324 686.435 607.5 687.259 607.5C688.197 607.5 688.941 607.301 689.492 606.903C690.049 606.5 690.327 606.017 690.327 605.455C690.327 605 690.168 604.619 689.85 604.312C689.532 604 689.043 603.767 688.384 603.614L686.202 603.102C685.004 602.818 684.123 602.378 683.56 601.781C683.004 601.179 682.725 600.426 682.725 599.523C682.725 598.784 682.933 598.131 683.347 597.562C683.768 596.994 684.339 596.548 685.06 596.224C685.788 595.901 686.612 595.739 687.532 595.739C688.827 595.739 689.844 596.023 690.583 596.591C691.327 597.159 691.856 597.909 692.168 598.841ZM700.753 609.273C699.571 609.273 698.534 608.991 697.642 608.429C696.756 607.866 696.062 607.08 695.562 606.068C695.068 605.057 694.821 603.875 694.821 602.523C694.821 601.159 695.068 599.969 695.562 598.952C696.062 597.935 696.756 597.145 697.642 596.582C698.534 596.02 699.571 595.739 700.753 595.739C701.935 595.739 702.969 596.02 703.855 596.582C704.747 597.145 705.44 597.935 705.935 598.952C706.435 599.969 706.685 601.159 706.685 602.523C706.685 603.875 706.435 605.057 705.935 606.068C705.44 607.08 704.747 607.866 703.855 608.429C702.969 608.991 701.935 609.273 700.753 609.273ZM700.753 607.466C701.651 607.466 702.389 607.236 702.969 606.776C703.548 606.315 703.977 605.71 704.256 604.96C704.534 604.21 704.673 603.398 704.673 602.523C704.673 601.648 704.534 600.832 704.256 600.077C703.977 599.321 703.548 598.71 702.969 598.244C702.389 597.778 701.651 597.545 700.753 597.545C699.855 597.545 699.116 597.778 698.537 598.244C697.957 598.71 697.528 599.321 697.25 600.077C696.972 600.832 696.832 601.648 696.832 602.523C696.832 603.398 696.972 604.21 697.25 604.96C697.528 605.71 697.957 606.315 698.537 606.776C699.116 607.236 699.855 607.466 700.753 607.466Z" fill="black"/>
<path d="M1217.57 591.545H1219.68V603.102C1219.68 604.295 1219.4 605.361 1218.84 606.298C1218.28 607.23 1217.49 607.966 1216.48 608.506C1215.46 609.04 1214.27 609.307 1212.9 609.307C1211.53 609.307 1210.34 609.04 1209.32 608.506C1208.3 607.966 1207.51 607.23 1206.95 606.298C1206.39 605.361 1206.11 604.295 1206.11 603.102V591.545H1208.23V602.932C1208.23 603.784 1208.41 604.543 1208.79 605.207C1209.16 605.866 1209.7 606.386 1210.39 606.767C1211.09 607.142 1211.93 607.33 1212.9 607.33C1213.87 607.33 1214.7 607.142 1215.4 606.767C1216.1 606.386 1216.64 605.866 1217.01 605.207C1217.38 604.543 1217.57 603.784 1217.57 602.932V591.545ZM1232.9 598.841L1231.1 599.352C1230.98 599.051 1230.81 598.759 1230.59 598.474C1230.38 598.185 1230.08 597.946 1229.71 597.759C1229.33 597.571 1228.85 597.477 1228.27 597.477C1227.47 597.477 1226.8 597.662 1226.26 598.031C1225.74 598.395 1225.47 598.858 1225.47 599.42C1225.47 599.92 1225.65 600.315 1226.02 600.605C1226.38 600.895 1226.95 601.136 1227.72 601.33L1229.66 601.807C1230.83 602.091 1231.71 602.526 1232.28 603.111C1232.85 603.69 1233.14 604.437 1233.14 605.352C1233.14 606.102 1232.93 606.773 1232.49 607.364C1232.07 607.955 1231.47 608.42 1230.7 608.761C1229.94 609.102 1229.04 609.273 1228.03 609.273C1226.69 609.273 1225.59 608.983 1224.71 608.403C1223.84 607.824 1223.28 606.977 1223.05 605.864L1224.96 605.386C1225.14 606.091 1225.49 606.619 1225.99 606.972C1226.5 607.324 1227.17 607.5 1227.99 607.5C1228.93 607.5 1229.68 607.301 1230.23 606.903C1230.78 606.5 1231.06 606.017 1231.06 605.455C1231.06 605 1230.9 604.619 1230.58 604.312C1230.27 604 1229.78 603.767 1229.12 603.614L1226.94 603.102C1225.74 602.818 1224.86 602.378 1224.29 601.781C1223.74 601.179 1223.46 600.426 1223.46 599.523C1223.46 598.784 1223.67 598.131 1224.08 597.562C1224.5 596.994 1225.07 596.548 1225.79 596.224C1226.52 595.901 1227.35 595.739 1228.27 595.739C1229.56 595.739 1230.58 596.023 1231.32 596.591C1232.06 597.159 1232.59 597.909 1232.9 598.841ZM1241.49 609.273C1240.26 609.273 1239.2 608.983 1238.32 608.403C1237.43 607.824 1236.75 607.026 1236.27 606.009C1235.79 604.991 1235.56 603.83 1235.56 602.523C1235.56 601.193 1235.8 600.02 1236.29 599.003C1236.78 597.98 1237.47 597.182 1238.35 596.608C1239.24 596.028 1240.27 595.739 1241.45 595.739C1242.37 595.739 1243.2 595.909 1243.94 596.25C1244.68 596.591 1245.29 597.068 1245.76 597.682C1246.23 598.295 1246.52 599.011 1246.63 599.83H1244.62C1244.47 599.233 1244.13 598.705 1243.6 598.244C1243.08 597.778 1242.37 597.545 1241.49 597.545C1240.7 597.545 1240.02 597.75 1239.42 598.159C1238.84 598.562 1238.38 599.134 1238.05 599.872C1237.73 600.605 1237.57 601.466 1237.57 602.455C1237.57 603.466 1237.73 604.347 1238.04 605.097C1238.37 605.847 1238.82 606.429 1239.41 606.844C1240 607.259 1240.69 607.466 1241.49 607.466C1242.01 607.466 1242.48 607.375 1242.91 607.193C1243.34 607.011 1243.7 606.75 1243.99 606.409C1244.29 606.068 1244.5 605.659 1244.62 605.182H1246.63C1246.52 605.955 1246.24 606.651 1245.79 607.27C1245.35 607.884 1244.76 608.372 1244.03 608.736C1243.3 609.094 1242.45 609.273 1241.49 609.273ZM1249.58 609V595.909H1251.59V609H1249.58ZM1250.6 593.727C1250.21 593.727 1249.87 593.594 1249.58 593.327C1249.31 593.06 1249.17 592.739 1249.17 592.364C1249.17 591.989 1249.31 591.668 1249.58 591.401C1249.87 591.134 1250.21 591 1250.6 591C1250.99 591 1251.33 591.134 1251.6 591.401C1251.89 591.668 1252.03 591.989 1252.03 592.364C1252.03 592.739 1251.89 593.06 1251.6 593.327C1251.33 593.594 1250.99 593.727 1250.6 593.727ZM1260.96 595.909V597.614H1254.18V595.909H1260.96ZM1256.16 592.773H1258.17V605.25C1258.17 605.818 1258.25 606.244 1258.42 606.528C1258.59 606.807 1258.8 606.994 1259.06 607.091C1259.33 607.182 1259.61 607.227 1259.91 607.227C1260.13 607.227 1260.31 607.216 1260.45 607.193C1260.59 607.165 1260.71 607.142 1260.79 607.125L1261.2 608.932C1261.07 608.983 1260.88 609.034 1260.63 609.085C1260.39 609.142 1260.08 609.17 1259.7 609.17C1259.13 609.17 1258.58 609.048 1258.03 608.804C1257.49 608.56 1257.04 608.188 1256.69 607.688C1256.33 607.188 1256.16 606.557 1256.16 605.795V592.773ZM1267.84 609.307C1267.01 609.307 1266.26 609.151 1265.58 608.838C1264.91 608.52 1264.37 608.062 1263.97 607.466C1263.57 606.864 1263.38 606.136 1263.38 605.284C1263.38 604.534 1263.52 603.926 1263.82 603.46C1264.11 602.989 1264.51 602.619 1265 602.352C1265.5 602.085 1266.04 601.886 1266.64 601.756C1267.24 601.619 1267.85 601.511 1268.46 601.432C1269.25 601.33 1269.9 601.253 1270.39 601.202C1270.89 601.145 1271.25 601.051 1271.48 600.92C1271.71 600.79 1271.83 600.562 1271.83 600.239V600.17C1271.83 599.33 1271.6 598.676 1271.14 598.21C1270.69 597.744 1270 597.511 1269.07 597.511C1268.11 597.511 1267.36 597.722 1266.81 598.142C1266.26 598.562 1265.88 599.011 1265.66 599.489L1263.75 598.807C1264.09 598.011 1264.55 597.392 1265.11 596.949C1265.69 596.5 1266.31 596.187 1266.99 596.011C1267.67 595.83 1268.34 595.739 1269 595.739C1269.42 595.739 1269.9 595.79 1270.45 595.892C1271 595.989 1271.53 596.19 1272.04 596.497C1272.56 596.804 1272.99 597.267 1273.33 597.886C1273.67 598.506 1273.84 599.335 1273.84 600.375V609H1271.83V607.227H1271.73C1271.59 607.511 1271.36 607.815 1271.05 608.139C1270.73 608.463 1270.3 608.739 1269.78 608.966C1269.25 609.193 1268.6 609.307 1267.84 609.307ZM1268.15 607.5C1268.94 607.5 1269.61 607.344 1270.16 607.031C1270.71 606.719 1271.13 606.315 1271.4 605.821C1271.69 605.327 1271.83 604.807 1271.83 604.261V602.42C1271.75 602.523 1271.56 602.616 1271.27 602.702C1270.98 602.781 1270.65 602.852 1270.28 602.915C1269.91 602.972 1269.55 603.023 1269.2 603.068C1268.85 603.108 1268.57 603.142 1268.35 603.17C1267.83 603.239 1267.34 603.349 1266.89 603.503C1266.44 603.651 1266.07 603.875 1265.8 604.176C1265.52 604.472 1265.39 604.875 1265.39 605.386C1265.39 606.085 1265.65 606.614 1266.16 606.972C1266.69 607.324 1267.35 607.5 1268.15 607.5Z" fill="black"/>
<path d="M1246.92 521.381C1247.68 521.704 1248.56 521.347 1248.88 520.584L1254.14 508.151C1254.46 507.388 1254.11 506.508 1253.34 506.185C1252.58 505.862 1251.7 506.219 1251.38 506.982L1246.7 518.034L1235.65 513.359C1234.89 513.036 1234.01 513.393 1233.69 514.156C1233.36 514.919 1233.72 515.799 1234.48 516.122L1246.92 521.381ZM297.813 452.261C521.219 308.331 723.394 239.143 887.116 249.054C968.951 254.009 1041.17 278.722 1101.68 323.741C1162.19 368.761 1211.07 434.147 1246.11 520.564L1248.89 519.436C1213.68 432.603 1164.5 366.737 1103.47 321.334C1042.44 275.928 969.644 251.045 887.298 246.06C722.658 236.093 519.833 305.655 296.188 449.739L297.813 452.261Z" fill="black"/>
<path d="M906.227 591.545V609H904.114V591.545H906.227ZM912.204 601.125V609H910.192V595.909H912.136V597.955H912.306C912.613 597.29 913.079 596.756 913.704 596.352C914.329 595.943 915.136 595.739 916.124 595.739C917.011 595.739 917.786 595.92 918.451 596.284C919.116 596.642 919.633 597.188 920.002 597.92C920.371 598.648 920.556 599.568 920.556 600.682V609H918.545V600.818C918.545 599.79 918.278 598.989 917.744 598.415C917.21 597.835 916.477 597.545 915.545 597.545C914.903 597.545 914.329 597.685 913.823 597.963C913.323 598.241 912.928 598.648 912.638 599.182C912.349 599.716 912.204 600.364 912.204 601.125ZM929.925 595.909V597.614H923.141V595.909H929.925ZM925.118 592.773H927.129V605.25C927.129 605.818 927.212 606.244 927.376 606.528C927.547 606.807 927.763 606.994 928.024 607.091C928.291 607.182 928.572 607.227 928.868 607.227C929.089 607.227 929.271 607.216 929.413 607.193C929.555 607.165 929.669 607.142 929.754 607.125L930.163 608.932C930.027 608.983 929.837 609.034 929.592 609.085C929.348 609.142 929.038 609.17 928.663 609.17C928.095 609.17 927.538 609.048 926.993 608.804C926.453 608.56 926.004 608.188 925.646 607.688C925.294 607.188 925.118 606.557 925.118 605.795V592.773ZM938.298 609.273C937.037 609.273 935.949 608.994 935.034 608.438C934.125 607.875 933.423 607.091 932.929 606.085C932.44 605.074 932.196 603.898 932.196 602.557C932.196 601.216 932.44 600.034 932.929 599.011C933.423 597.983 934.111 597.182 934.991 596.608C935.878 596.028 936.912 595.739 938.094 595.739C938.776 595.739 939.449 595.852 940.114 596.08C940.778 596.307 941.384 596.676 941.929 597.188C942.474 597.693 942.909 598.364 943.233 599.199C943.557 600.034 943.719 601.062 943.719 602.284V603.136H933.628V601.398H941.673C941.673 600.659 941.526 600 941.23 599.42C940.94 598.841 940.526 598.384 939.986 598.048C939.452 597.713 938.821 597.545 938.094 597.545C937.293 597.545 936.599 597.744 936.014 598.142C935.435 598.534 934.989 599.045 934.676 599.676C934.364 600.307 934.207 600.983 934.207 601.705V602.864C934.207 603.852 934.378 604.69 934.719 605.378C935.065 606.06 935.545 606.58 936.159 606.938C936.773 607.29 937.486 607.466 938.298 607.466C938.827 607.466 939.304 607.392 939.73 607.244C940.162 607.091 940.534 606.864 940.847 606.562C941.159 606.256 941.401 605.875 941.571 605.42L943.514 605.966C943.31 606.625 942.966 607.205 942.483 607.705C942 608.199 941.403 608.585 940.693 608.864C939.983 609.136 939.185 609.273 938.298 609.273ZM946.778 609V595.909H948.722V597.886H948.858C949.097 597.239 949.528 596.713 950.153 596.31C950.778 595.906 951.483 595.705 952.267 595.705C952.415 595.705 952.599 595.707 952.821 595.713C953.043 595.719 953.21 595.727 953.324 595.739V597.784C953.256 597.767 953.099 597.741 952.855 597.707C952.616 597.668 952.364 597.648 952.097 597.648C951.46 597.648 950.892 597.781 950.392 598.048C949.898 598.31 949.506 598.673 949.216 599.139C948.932 599.599 948.79 600.125 948.79 600.716V609H946.778ZM955.708 609V595.909H957.651V597.955H957.822C958.094 597.256 958.535 596.713 959.143 596.327C959.751 595.935 960.481 595.739 961.333 595.739C962.197 595.739 962.915 595.935 963.489 596.327C964.069 596.713 964.521 597.256 964.844 597.955H964.981C965.316 597.278 965.819 596.741 966.489 596.344C967.16 595.94 967.964 595.739 968.901 595.739C970.072 595.739 971.029 596.105 971.773 596.838C972.518 597.565 972.89 598.699 972.89 600.239V609H970.879V600.239C970.879 599.273 970.614 598.582 970.086 598.168C969.558 597.753 968.935 597.545 968.219 597.545C967.299 597.545 966.586 597.824 966.08 598.381C965.575 598.932 965.322 599.631 965.322 600.477V609H963.276V600.034C963.276 599.29 963.035 598.69 962.552 598.236C962.069 597.776 961.447 597.545 960.685 597.545C960.163 597.545 959.674 597.685 959.219 597.963C958.771 598.241 958.407 598.628 958.129 599.122C957.856 599.611 957.719 600.176 957.719 600.818V609H955.708ZM982.056 609.273C980.795 609.273 979.707 608.994 978.792 608.438C977.883 607.875 977.181 607.091 976.687 606.085C976.198 605.074 975.954 603.898 975.954 602.557C975.954 601.216 976.198 600.034 976.687 599.011C977.181 597.983 977.869 597.182 978.749 596.608C979.636 596.028 980.67 595.739 981.852 595.739C982.533 595.739 983.207 595.852 983.871 596.08C984.536 596.307 985.141 596.676 985.687 597.188C986.232 597.693 986.667 598.364 986.991 599.199C987.315 600.034 987.477 601.062 987.477 602.284V603.136H977.386V601.398H985.431C985.431 600.659 985.283 600 984.988 599.42C984.698 598.841 984.283 598.384 983.744 598.048C983.21 597.713 982.579 597.545 981.852 597.545C981.05 597.545 980.357 597.744 979.772 598.142C979.192 598.534 978.746 599.045 978.434 599.676C978.121 600.307 977.965 600.983 977.965 601.705V602.864C977.965 603.852 978.136 604.69 978.477 605.378C978.823 606.06 979.303 606.58 979.917 606.938C980.531 607.29 981.244 607.466 982.056 607.466C982.585 607.466 983.062 607.392 983.488 607.244C983.92 607.091 984.292 606.864 984.604 606.562C984.917 606.256 985.158 605.875 985.329 605.42L987.272 605.966C987.067 606.625 986.724 607.205 986.241 607.705C985.758 608.199 985.161 608.585 984.451 608.864C983.741 609.136 982.942 609.273 982.056 609.273ZM995.479 609.273C994.388 609.273 993.425 608.997 992.59 608.446C991.755 607.889 991.102 607.105 990.63 606.094C990.158 605.077 989.923 603.875 989.923 602.489C989.923 601.114 990.158 599.92 990.63 598.909C991.102 597.898 991.758 597.116 992.599 596.565C993.44 596.014 994.411 595.739 995.513 595.739C996.366 595.739 997.039 595.881 997.533 596.165C998.033 596.443 998.414 596.761 998.675 597.119C998.942 597.472 999.15 597.761 999.298 597.989H999.468V591.545H1001.48V609H999.536V606.989H999.298C999.15 607.227 998.94 607.528 998.667 607.892C998.394 608.25 998.005 608.571 997.499 608.855C996.994 609.134 996.32 609.273 995.479 609.273ZM995.752 607.466C996.559 607.466 997.241 607.256 997.798 606.835C998.354 606.409 998.778 605.821 999.067 605.071C999.357 604.315 999.502 603.443 999.502 602.455C999.502 601.477 999.36 600.622 999.076 599.889C998.792 599.151 998.371 598.577 997.815 598.168C997.258 597.753 996.57 597.545 995.752 597.545C994.9 597.545 994.19 597.764 993.621 598.202C993.059 598.634 992.636 599.222 992.352 599.966C992.073 600.705 991.934 601.534 991.934 602.455C991.934 603.386 992.076 604.233 992.36 604.994C992.65 605.75 993.076 606.352 993.638 606.801C994.207 607.244 994.911 607.466 995.752 607.466ZM1005.44 609V595.909H1007.45V609H1005.44ZM1006.47 593.727C1006.07 593.727 1005.74 593.594 1005.45 593.327C1005.17 593.06 1005.03 592.739 1005.03 592.364C1005.03 591.989 1005.17 591.668 1005.45 591.401C1005.74 591.134 1006.07 591 1006.47 591C1006.86 591 1007.19 591.134 1007.47 591.401C1007.75 591.668 1007.9 591.989 1007.9 592.364C1007.9 592.739 1007.75 593.06 1007.47 593.327C1007.19 593.594 1006.86 593.727 1006.47 593.727Z" fill="black"/>
<path d="M657.991 683.667C658.083 682.844 657.491 682.102 656.667 682.009L643.252 680.502C642.429 680.41 641.686 681.002 641.594 681.826C641.501 682.649 642.094 683.391 642.917 683.484L654.842 684.823L653.502 696.748C653.41 697.571 654.002 698.314 654.826 698.406C655.649 698.499 656.391 697.906 656.484 697.083L657.991 683.667ZM292.939 687.061C373.196 767.318 464.454 766.664 535.481 746.003C570.979 735.677 601.456 720.35 623.051 707.612C633.852 701.242 642.438 695.515 648.328 691.377C651.273 689.308 653.545 687.636 655.083 686.479C655.852 685.901 656.437 685.451 656.832 685.145C657.029 684.992 657.179 684.875 657.28 684.796C657.33 684.756 657.369 684.726 657.395 684.705C657.408 684.695 657.418 684.687 657.424 684.681C657.428 684.679 657.431 684.676 657.432 684.675C657.434 684.673 657.436 684.672 656.5 683.5C655.564 682.328 655.564 682.328 655.563 682.329C655.562 682.33 655.56 682.331 655.557 682.333C655.552 682.338 655.543 682.345 655.531 682.354C655.508 682.372 655.472 682.4 655.425 682.438C655.329 682.513 655.185 682.626 654.994 682.775C654.61 683.072 654.036 683.512 653.28 684.082C651.766 685.22 649.521 686.873 646.604 688.922C640.769 693.021 632.25 698.704 621.527 705.028C600.076 717.681 569.833 732.886 534.644 743.122C464.296 763.586 374.304 764.182 295.061 684.939L292.939 687.061Z" fill="black"/>
<path d="M954.995 681.098C954.926 680.272 954.201 679.659 953.376 679.727L939.922 680.847C939.097 680.915 938.483 681.64 938.552 682.466C938.62 683.291 939.345 683.905 940.171 683.836L952.13 682.841L953.124 694.8C953.193 695.626 953.918 696.239 954.744 696.171C955.569 696.102 956.183 695.377 956.114 694.551L954.995 681.098ZM657.939 682.283C697.982 722.325 736.575 742.431 771.992 749.978C807.407 757.525 839.527 752.489 866.585 742.441C893.631 732.397 915.634 717.341 930.867 704.81C938.487 698.542 944.421 692.899 948.455 688.819C950.471 686.778 952.014 685.128 953.054 683.984C953.575 683.412 953.97 682.967 954.236 682.664C954.369 682.512 954.47 682.395 954.538 682.316C954.572 682.276 954.598 682.246 954.616 682.225C954.625 682.215 954.632 682.207 954.637 682.201C954.639 682.198 954.641 682.196 954.642 682.194C954.644 682.192 954.645 682.191 953.5 681.222C952.355 680.253 952.355 680.253 952.355 680.254C952.354 680.255 952.353 680.256 952.351 680.258C952.347 680.262 952.342 680.268 952.335 680.277C952.319 680.295 952.296 680.322 952.265 680.358C952.202 680.431 952.107 680.541 951.98 680.686C951.726 680.976 951.343 681.407 950.836 681.965C949.821 683.08 948.307 684.7 946.321 686.71C942.348 690.729 936.49 696.3 928.961 702.493C913.897 714.885 892.182 729.735 865.54 739.628C838.91 749.518 807.374 754.451 772.617 747.044C737.862 739.638 699.768 719.869 660.061 680.162L657.939 682.283Z" fill="black"/>
<path d="M1249.99 681.826C1249.93 681.001 1249.2 680.387 1248.38 680.456L1234.92 681.575C1234.1 681.644 1233.48 682.369 1233.55 683.194C1233.62 684.02 1234.35 684.633 1235.17 684.565L1247.13 683.57L1248.12 695.529C1248.19 696.354 1248.92 696.968 1249.74 696.899C1250.57 696.83 1251.18 696.105 1251.11 695.28L1249.99 681.826ZM952.939 683.011C992.982 723.054 1031.58 743.16 1066.99 750.707C1102.41 758.254 1134.53 753.217 1161.58 743.169C1188.63 733.125 1210.63 718.069 1225.87 705.539C1233.49 699.271 1239.42 693.628 1243.45 689.547C1245.47 687.507 1247.01 685.856 1248.05 684.713C1248.57 684.141 1248.97 683.696 1249.24 683.392C1249.37 683.24 1249.47 683.124 1249.54 683.045C1249.57 683.005 1249.6 682.974 1249.62 682.954C1249.63 682.943 1249.63 682.935 1249.64 682.929C1249.64 682.927 1249.64 682.924 1249.64 682.923C1249.64 682.921 1249.64 682.92 1248.5 681.951C1247.36 680.982 1247.36 680.982 1247.35 680.982C1247.35 680.983 1247.35 680.984 1247.35 680.986C1247.35 680.991 1247.34 680.997 1247.33 681.006C1247.32 681.023 1247.3 681.05 1247.26 681.087C1247.2 681.16 1247.11 681.269 1246.98 681.415C1246.73 681.705 1246.34 682.136 1245.84 682.693C1244.82 683.809 1243.31 685.429 1241.32 687.438C1237.35 691.457 1231.49 697.029 1223.96 703.222C1208.9 715.613 1187.18 730.463 1160.54 740.357C1133.91 750.246 1102.37 755.179 1067.62 747.773C1032.86 740.367 994.768 720.597 955.061 680.89L952.939 683.011Z" fill="black"/>
<path d="M843.943 198.545V216H841.83V200.761H841.727L837.466 203.591V201.443L841.83 198.545H843.943Z" fill="black"/>
<path d="M442.943 774.545V792H440.83V776.761H440.727L436.466 779.591V777.443L440.83 774.545H442.943Z" fill="black"/>
<path d="M1097.81 429V427.466L1103.57 421.159C1104.24 420.42 1104.8 419.778 1105.24 419.233C1105.68 418.682 1106 418.165 1106.21 417.682C1106.43 417.193 1106.53 416.682 1106.53 416.148C1106.53 415.534 1106.39 415.003 1106.09 414.554C1105.8 414.105 1105.4 413.759 1104.9 413.514C1104.39 413.27 1103.82 413.148 1103.19 413.148C1102.52 413.148 1101.94 413.287 1101.44 413.565C1100.94 413.838 1100.56 414.222 1100.29 414.716C1100.02 415.21 1099.89 415.79 1099.89 416.455H1097.88C1097.88 415.432 1098.11 414.534 1098.58 413.761C1099.05 412.989 1099.7 412.386 1100.51 411.955C1101.33 411.523 1102.24 411.307 1103.26 411.307C1104.28 411.307 1105.19 411.523 1105.98 411.955C1106.77 412.386 1107.39 412.969 1107.84 413.702C1108.29 414.435 1108.51 415.25 1108.51 416.148C1108.51 416.79 1108.39 417.418 1108.16 418.031C1107.93 418.639 1107.54 419.318 1106.97 420.068C1106.41 420.812 1105.62 421.722 1104.62 422.795L1100.7 426.989V427.125H1108.82V429H1097.81Z" fill="black"/>
<path d="M805.705 427.239C804.58 427.239 803.577 427.045 802.696 426.659C801.821 426.273 801.125 425.736 800.608 425.048C800.097 424.355 799.818 423.551 799.773 422.636H801.92C801.966 423.199 802.159 423.685 802.5 424.094C802.841 424.497 803.287 424.81 803.838 425.031C804.389 425.253 805 425.364 805.67 425.364C806.42 425.364 807.085 425.233 807.665 424.972C808.244 424.71 808.699 424.347 809.028 423.881C809.358 423.415 809.523 422.875 809.523 422.261C809.523 421.619 809.364 421.054 809.045 420.565C808.727 420.071 808.261 419.685 807.648 419.406C807.034 419.128 806.284 418.989 805.398 418.989H804V417.114H805.398C806.091 417.114 806.699 416.989 807.222 416.739C807.75 416.489 808.162 416.136 808.457 415.682C808.759 415.227 808.909 414.693 808.909 414.08C808.909 413.489 808.778 412.974 808.517 412.537C808.256 412.099 807.886 411.759 807.409 411.514C806.938 411.27 806.381 411.148 805.739 411.148C805.136 411.148 804.568 411.259 804.034 411.48C803.506 411.696 803.074 412.011 802.739 412.426C802.403 412.835 802.222 413.33 802.193 413.909H800.148C800.182 412.994 800.457 412.193 800.974 411.506C801.491 410.812 802.168 410.273 803.003 409.886C803.844 409.5 804.767 409.307 805.773 409.307C806.852 409.307 807.778 409.526 808.551 409.963C809.324 410.395 809.918 410.966 810.332 411.676C810.747 412.386 810.955 413.153 810.955 413.977C810.955 414.96 810.696 415.798 810.179 416.491C809.668 417.185 808.972 417.665 808.091 417.932V418.068C809.193 418.25 810.054 418.719 810.673 419.474C811.293 420.224 811.602 421.153 811.602 422.261C811.602 423.21 811.344 424.062 810.827 424.818C810.315 425.568 809.616 426.159 808.73 426.591C807.844 427.023 806.835 427.239 805.705 427.239Z" fill="black"/>
<path d="M800.807 792V790.466L806.568 784.159C807.244 783.42 807.801 782.778 808.239 782.233C808.676 781.682 809 781.165 809.21 780.682C809.426 780.193 809.534 779.682 809.534 779.148C809.534 778.534 809.386 778.003 809.091 777.554C808.801 777.105 808.403 776.759 807.898 776.514C807.392 776.27 806.824 776.148 806.193 776.148C805.523 776.148 804.938 776.287 804.438 776.565C803.943 776.838 803.56 777.222 803.287 777.716C803.02 778.21 802.886 778.79 802.886 779.455H800.875C800.875 778.432 801.111 777.534 801.582 776.761C802.054 775.989 802.696 775.386 803.509 774.955C804.327 774.523 805.244 774.307 806.261 774.307C807.284 774.307 808.19 774.523 808.98 774.955C809.77 775.386 810.389 775.969 810.838 776.702C811.287 777.435 811.511 778.25 811.511 779.148C811.511 779.79 811.395 780.418 811.162 781.031C810.935 781.639 810.537 782.318 809.969 783.068C809.406 783.812 808.625 784.722 807.625 785.795L803.705 789.989V790.125H811.818V792H800.807Z" fill="black"/>
<path d="M1103.7 792.239C1102.58 792.239 1101.58 792.045 1100.7 791.659C1099.82 791.273 1099.13 790.736 1098.61 790.048C1098.1 789.355 1097.82 788.551 1097.77 787.636H1099.92C1099.97 788.199 1100.16 788.685 1100.5 789.094C1100.84 789.497 1101.29 789.81 1101.84 790.031C1102.39 790.253 1103 790.364 1103.67 790.364C1104.42 790.364 1105.09 790.233 1105.66 789.972C1106.24 789.71 1106.7 789.347 1107.03 788.881C1107.36 788.415 1107.52 787.875 1107.52 787.261C1107.52 786.619 1107.36 786.054 1107.05 785.565C1106.73 785.071 1106.26 784.685 1105.65 784.406C1105.03 784.128 1104.28 783.989 1103.4 783.989H1102V782.114H1103.4C1104.09 782.114 1104.7 781.989 1105.22 781.739C1105.75 781.489 1106.16 781.136 1106.46 780.682C1106.76 780.227 1106.91 779.693 1106.91 779.08C1106.91 778.489 1106.78 777.974 1106.52 777.537C1106.26 777.099 1105.89 776.759 1105.41 776.514C1104.94 776.27 1104.38 776.148 1103.74 776.148C1103.14 776.148 1102.57 776.259 1102.03 776.48C1101.51 776.696 1101.07 777.011 1100.74 777.426C1100.4 777.835 1100.22 778.33 1100.19 778.909H1098.15C1098.18 777.994 1098.46 777.193 1098.97 776.506C1099.49 775.812 1100.17 775.273 1101 774.886C1101.84 774.5 1102.77 774.307 1103.77 774.307C1104.85 774.307 1105.78 774.526 1106.55 774.963C1107.32 775.395 1107.92 775.966 1108.33 776.676C1108.75 777.386 1108.95 778.153 1108.95 778.977C1108.95 779.96 1108.7 780.798 1108.18 781.491C1107.67 782.185 1106.97 782.665 1106.09 782.932V783.068C1107.19 783.25 1108.05 783.719 1108.67 784.474C1109.29 785.224 1109.6 786.153 1109.6 787.261C1109.6 788.21 1109.34 789.062 1108.83 789.818C1108.32 790.568 1107.62 791.159 1106.73 791.591C1105.84 792.023 1104.84 792.239 1103.7 792.239Z" fill="black"/>
</svg>
